<svg xmlns="http://www.w3.org/2000/svg" viewBox="0 0 206.68 271.77"><g fill="currentColor"><path d="M192.46 27.35c.71-1.95 1.24-3.6 1.83-5.24.57-1.52 1.22-3.02 2.01-4.43.16-.28 1.25-.35 1.65-.09.42.26.87 1.21.7 1.55-.65 1.29-1.35 2.55-2.05 3.81-.7 1.26-1.41 2.52-2.19 3.74-.26.43-.45.93-.79 1.27-.15.15-.66.08-.9-.07-.2-.12-.24-.5-.26-.53zM189.37 34.69c.66.79.2 1.53-.12 2.2-.72 1.41-1.68 2.7-2.58 4.01-.62.89-1.47 1.66-1.94 2.61-.36.71-.83.9-1.68.68-.11-.03-.25-.29-.22-.38.99-2.38 2.26-4.39 3.25-6.76.2-.47.33-.97.49-1.45.31-.98 1.61-1.57 2.8-.91zM201.5 8.69c.42-1.44 1.31-3.76 1.61-4.77.29-.99.47-2.02.91-2.94.22-.45.88-.77 1.4-.97.16-.06.51.46.77.72 1.09 1.1.09 2.07-.35 3.08-.47 1.08-2.17 3.74-2.59 4.83-.49 1.28-.83 1.31-1.71.36-.12-.13-.04-.48-.03-.3zM161.19 75.3c.98-1.83 1.74-3.4 2.63-4.9a36.87 36.87 0 012.76-4c.2-.25 1.28-.14 1.64.17.37.32.67 1.34.45 1.65-1.74 2.3-3.63 4.49-5.47 6.71-.32.39-.58.86-.96 1.14-.17.13-.66-.03-.87-.21-.18-.16-.16-.54-.17-.57zM156.95 82.04c.52.88-.06 1.53-.48 2.14-.9 1.3-2.01 2.46-3.1 3.62-.76.78-1.71 1.4-2.34 2.27-.47.64-.96.76-1.77.41-.1-.04-.21-.33-.16-.41 1.35-2.19 2.96-3.95 4.24-6.19.26-.44.46-.92.68-1.38.45-.93 1.86-1.29 2.93-.45zM173.21 58.4c.71-1.31 1.91-3.5 2.37-4.44.44-.93.78-1.93 1.36-2.76.28-.41.98-.62 1.52-.73.17-.04.43.54.64.84.9 1.27-.24 2.07-.83 3-.64.99-2.7 3.36-3.33 4.35-.73 1.16-1.07 1.13-1.77.05-.1-.15.05-.47.02-.3z"/><g><path d="M123.42 118.39c1.2-1.7 2.14-3.17 3.21-4.54 1-1.27 2.07-2.52 3.21-3.66.23-.23 1.29.02 1.61.38.32.37.49 1.41.23 1.69-1.96 2.11-4.14 4.01-6.22 6-.37.34-.68.78-1.1 1.02-.18.1-.65-.1-.84-.31-.16-.17-.1-.55-.1-.59zM118.46 124.62c.42.93-.23 1.51-.71 2.07-1.03 1.19-2.27 2.22-3.46 3.26-.82.71-1.83 1.23-2.53 2.03-.52.6-1.03.66-1.8.24-.1-.05-.17-.34-.12-.42 1.56-2.06 3.3-3.67 4.83-5.75.31-.41.55-.87.83-1.3.55-.87 1.99-1.08 2.96-.13zM137.48 103.14c.84-1.25 2.38-3.2 2.97-4.08.57-.86 1.06-1.79 1.75-2.53.34-.37 1.07-.47 1.62-.5.17-.01.35.6.51.92.7 1.38-.54 2-1.26 2.84-.77.89-3.19 2.91-3.92 3.82-.86 1.07-1.19 1-1.74-.18-.08-.17.11-.47.06-.3z"/></g><g><path d="M82.26 158.34c1.27-1.65 2.28-3.07 3.41-4.4 1.05-1.24 2.18-2.43 3.41-3.49.24-.21 1.29.1 1.58.48.3.39.41 1.44.13 1.7-2.1 1.96-4.31 3.8-6.49 5.69-.38.33-.71.75-1.14.97-.19.1-.65-.13-.83-.35-.15-.18-.08-.55-.08-.59zM77.1 164.4c.4.95-.26 1.51-.76 2.05-1.06 1.16-2.31 2.16-3.52 3.18-.83.7-1.84 1.22-2.54 2.01-.53.59-1.03.65-1.8.23-.1-.05-.17-.34-.11-.42 1.57-2.05 3.33-3.66 4.91-5.7.31-.41.57-.86.86-1.28.58-.86 2.02-1.04 2.97-.06zM97.16 143.88c.93-1.18 2.62-3.01 3.28-3.84.64-.81 1.2-1.71 1.95-2.39.37-.34 1.1-.38 1.65-.37.17 0 .3.62.43.97.59 1.44-.69 1.96-1.48 2.73-.83.82-3.4 2.65-4.19 3.51-.93 1-1.27.9-1.73-.31-.07-.17.14-.46.08-.29z"/></g><g><path d="M41.75 198.98c1.13-1.74 2.03-3.25 3.06-4.67.96-1.32 2.04-2.56 3.21-3.69.23-.23 1.3.03 1.61.39.32.37.48 1.41.22 1.68l-6.07 6.09c-.35.36-.65.8-1.06 1.05-.18.11-.66-.08-.86-.28-.17-.17-.12-.54-.13-.58zM37.19 205.5c.5.9-.1 1.52-.53 2.11-.93 1.26-2.07 2.37-3.11 3.55-.72.8-1.65 1.45-2.24 2.33-.44.66-.93.78-1.75.47-.1-.04-.22-.32-.17-.4 1.29-2.23 2.78-4.11 4.13-6.31.27-.44.48-.91.72-1.37.48-.92 1.9-1.26 2.95-.38zM55.83 183.68c.9-1.2 2.55-3.08 3.18-3.93.62-.82 1.18-1.72 1.92-2.42.37-.35 1.1-.4 1.65-.4.17 0 .3.62.45.96.61 1.43-.66 1.96-1.44 2.74-.83.82-3.32 2.73-4.1 3.6-.9 1.03-1.24.94-1.74-.25-.07-.17.13-.46.08-.3z"/></g><g><path d="M9.15 246.05c.63-1.97 1.11-3.67 1.73-5.31.58-1.54 1.23-3.07 2.15-4.42.18-.28 1.28-.28 1.67-.01.4.28.8 1.25.61 1.57-.75 1.21-1.42 2.47-2.12 3.71l-2.12 3.72c-.24.43-.41.94-.74 1.29-.15.15-.66.11-.91-.03-.21-.11-.27-.48-.28-.52zM6.77 253.65c.76.69.34 1.45.17 2.16-.41 1.5-1.07 2.94-1.69 4.38-.42.99-1.09 1.9-1.36 2.92-.18.77-.55 1.07-1.43 1.07-.11 0-.32-.22-.31-.31.11-1.3.53-2.47.84-3.68.33-1.2.67-2.39.92-3.67.1-.51.13-1.03.19-1.55.1-1.06 1.42-1.8 2.67-1.31zM19.12 227.79c.64-1.36 1.89-3.53 2.35-4.5.44-.94.87-1.91 1.48-2.73.31-.4 1.02-.58 1.56-.67.17-.03.4.56.6.87.84 1.31-.32 2.03-.95 2.93-.67.95-2.71 3.3-3.3 4.3-.68 1.18-1.02 1.16-1.76.1-.1-.15.03-.48.01-.3z"/></g></g></svg>
