<svg width="740" height="1427" viewBox="0 0 740 1427" xmlns="http://www.w3.org/2000/svg"><g fill="currentColor" fill-rule="evenodd"><path d="M367.027 24.119c-2.644-2.593-4.886-4.723-7.028-6.95-1.991-2.08-3.873-4.274-5.465-6.625-.317-.468.628-2.28 1.44-2.747.833-.475 2.868-.485 3.27.056 3.037 4.092 5.853 8.324 8.53 12.64.476.747 1.147 1.429 1.395 2.235.11.357-.508 1.115-.988 1.383-.405.227-1.086.01-1.154.008M374.627 35.865c1.927-.42 2.674.879 3.463 1.882 1.617 2.187 2.813 4.673 4.077 7.081.847 1.661 1.342 3.521 2.364 5.038.784 1.123.61 2.004-.592 3.139-.152.141-.723.16-.827.033-2.765-3.454-4.929-6.892-7.819-10.25-.582-.664-1.268-1.245-1.908-1.86-1.31-1.223-.996-3.71 1.242-5.063M410.086 111.745c-1.689-3.01-3.176-5.48-4.47-8.04-1.271-2.363-2.413-4.805-3.253-7.327-.167-.502 1.152-1.973 2.005-2.225.876-.26 2.722.183 2.95.775.86 2.235 1.644 4.497 2.403 6.765.747 2.27 1.327 4.6 2.01 6.888.23.801.655 1.588.665 2.39.004.354-.758.908-1.264 1.04-.427.112-.985-.246-1.046-.266M416.579 126.08c2.032.069 2.308 1.511 2.695 2.687.857 2.507 1.21 5.196 1.652 7.823.342 1.792-.013 3.75.516 5.454.378 1.28-.085 2.076-1.635 2.837-.194.096-.752-.038-.81-.186-.794-2.002-1.33-3.98-1.91-5.946-.65-1.951-1.298-3.9-2.172-5.859-.35-.78-.826-1.508-1.244-2.255-.813-1.51.327-3.814 2.908-4.554M396.554 80.098c-1.327-2.219-3.255-6.067-4.188-7.623-.922-1.51-2.06-2.905-2.772-4.513-.354-.792-.11-2.016.136-2.928.075-.28 1.066-.155 1.64-.201 2.427-.196 2.674 2.223 3.519 3.95.924 1.823 2.411 7.18 3.336 8.989 1.07 2.139.762 2.612-1.272 2.638-.287.003-.623-.505-.4-.312M423.03 208.285c-.359-3.502-.886-6.403-1.04-9.33-.09-2.733-.277-5.488-.068-8.232.041-.545 2.028-1.595 3.015-1.582 1.013.01 2.729 1.013 2.711 1.67-.012 4.95-.924 9.928-1.527 14.877-.123.863.006 1.774-.382 2.569-.17.35-1.209.653-1.783.623-.485-.025-.872-.559-.926-.595M423.866 222.74c1.77.693 1.416 2.13 1.305 3.352-.264 2.614-.957 5.256-1.726 7.835-.543 1.763-1.585 3.49-1.82 5.24-.176 1.312-.922 1.916-2.643 2.168-.216.032-.67-.261-.662-.418.169-4.237 1.315-8.11 1.22-12.328 0-.839-.137-1.666-.214-2.498-.155-1.663 1.872-3.462 4.54-3.352M423.17 173.81c-.576-2.441-1.322-6.538-1.763-8.242-.472-1.657-1.046-3.295-1.297-4.968-.105-.829.656-1.886 1.298-2.654.198-.238 1.3.162 1.986.285 2.882.517 2.285 2.816 2.461 4.673.235 1.971-.108 7.332.217 9.275.325 2.295-.275 2.64-2.584 2.04-.33-.085-.485-.654-.318-.41M406.651 305.568c.493-3.328.513-6.196.955-8.987.381-2.61.905-5.22 1.7-7.735.16-.502 1.989-1.001 2.777-.753.806.256 1.95 1.596 1.788 2.199-1.232 4.546-2.743 9.022-4.17 13.51-.278.775-.4 1.638-.85 2.301-.198.295-1.093.363-1.555.216-.388-.123-.609-.705-.645-.75M403.592 319.64c1.542 1.094 1 2.535.715 3.805-.572 2.723-1.786 5.309-2.897 7.892-.756 1.77-1.974 3.41-2.441 5.223-.35 1.357-1.133 1.862-2.776 1.817-.207-.007-.59-.4-.56-.564.783-4.456 2.282-8.373 3.055-12.816.126-.892.121-1.8.175-2.7.109-1.81 2.267-3.321 4.729-2.658M412.755 270.15c.082-2.641.56-6.972.615-8.83.056-1.812-.083-3.669.249-5.404.167-.856 1.057-1.648 1.806-2.18.227-.163 1.05.626 1.595.99 2.33 1.546 1.08 3.566.79 5.475-.309 2.028-1.982 7.226-2.208 9.265-.267 2.393-.817 2.56-2.665 1.2-.262-.191-.271-.818-.182-.516M372.473 398.245c.84-3.476 1.428-6.421 2.275-9.282.827-2.648 1.614-5.355 2.75-7.872.22-.503 2.094-.71 2.84-.306.765.413 1.722 2.034 1.482 2.643-1.75 4.621-3.994 9.018-6.117 13.462-.37.775-.596 1.671-1.12 2.298-.232.278-1.126.199-1.563-.036-.37-.197-.518-.852-.547-.907M369.006 409.966c1.335 1.221.542 2.514.034 3.677-1.084 2.481-2.64 4.815-4.099 7.159-.998 1.606-2.433 3.035-3.154 4.713-.556 1.25-1.426 1.631-3.046 1.402-.202-.03-.518-.445-.461-.598 1.502-4.135 3.468-7.741 4.91-11.888.284-.829.443-1.687.655-2.53.43-1.695 2.84-2.862 5.161-1.935M385.488 365.302c.527-2.461 1.74-6.45 2.11-8.183.361-1.689.53-3.447 1.161-5.027.311-.781 1.416-1.373 2.29-1.761.268-.12.954.727 1.441 1.14 2.056 1.751.453 3.471-.164 5.217-.655 1.856-3.238 6.49-3.81 8.365-.675 2.204-1.266 2.283-2.929.757-.236-.215-.14-.804-.1-.508M327.352 484.817c1.356-3.206 2.373-5.941 3.592-8.602 1.152-2.473 2.452-4.915 3.995-7.195.307-.455 2.289-.492 3.002-.048.733.452 1.484 2.052 1.145 2.602-2.587 4.145-5.364 8.192-8.19 12.209-.489.7-.847 1.524-1.479 2.076-.28.244-1.196.103-1.62-.149-.358-.212-.42-.838-.445-.893M322.419 498.338c1.18 1.458.361 2.712-.183 3.869-1.163 2.468-2.758 4.722-4.262 7.001-1.029 1.56-2.458 2.886-3.233 4.559-.579 1.25-1.394 1.563-2.893 1.14-.187-.052-.464-.526-.406-.683 1.578-4.2 3.692-7.716 5.28-11.906.318-.835.518-1.719.77-2.58.51-1.728 2.827-2.662 4.927-1.4M343.04 453.971c.895-2.548 2.728-6.63 3.357-8.427.63-1.743 1.021-3.611 1.863-5.229.419-.797 1.646-1.28 2.606-1.573.294-.09.912.92 1.372 1.437 1.94 2.178.067 3.803-.796 5.589-.947 1.88-4.306 6.446-5.17 8.363-1.015 2.25-1.648 2.251-3.198.395-.219-.263-.038-.876-.035-.555M277.324 568.536c1.362-3.231 2.396-5.997 3.69-8.644 1.203-2.467 2.55-4.897 4.13-7.148.314-.448 2.24-.375 2.922.118.696.506 1.376 2.185 1.029 2.727-2.627 4.098-5.525 8.036-8.31 12.035-.485.696-.845 1.525-1.466 2.062-.276.238-1.167.057-1.576-.217-.344-.233-.396-.876-.419-.933M271.468 582.44c1.15 1.479.333 2.728-.214 3.88-1.167 2.46-2.764 4.7-4.27 6.97-1.032 1.55-2.461 2.867-3.24 4.533-.571 1.252-1.379 1.568-2.876 1.145-.187-.053-.465-.528-.407-.684 1.557-4.224 3.71-7.72 5.309-11.924.32-.837.527-1.724.783-2.588.519-1.74 2.835-2.644 4.915-1.332M295.525 539.316c1.028-2.282 3.056-5.922 3.781-7.533.701-1.572 1.226-3.25 2.17-4.672.467-.702 1.676-1.072 2.614-1.286.288-.065.79.888 1.186 1.38 1.67 2.085-.253 3.449-1.213 5.024-1.012 1.676-4.526 5.666-5.477 7.374-1.116 2-1.72 1.975-3.067.22-.19-.249.025-.8.006-.507M228.068 655.242c1.155-3.578 2.007-6.634 3.139-9.594 1.047-2.762 2.254-5.498 3.813-7.999.307-.503 2.361-.535 3.116-.042.774.506 1.607 2.269 1.275 2.869a875.85 875.85 0 01-7.749 13.505c-.451.785-.758 1.7-1.368 2.325-.27.277-1.234.16-1.695-.101-.388-.218-.501-.905-.53-.963M223.706 667.328c1.225 1.225.55 2.457.127 3.571-.942 2.363-2.138 4.647-3.313 6.924-.794 1.56-1.994 2.963-2.54 4.598-.406 1.22-1.143 1.619-2.618 1.45-.184-.021-.501-.415-.463-.566 1.03-4.082 2.644-7.613 3.696-11.715.215-.816.352-1.645.52-2.47.352-1.662 2.493-2.763 4.591-1.792M245.442 622.899c.915-2.569 2.778-6.682 3.425-8.501.632-1.772 1.083-3.664 1.975-5.269.453-.784 1.687-1.191 2.643-1.422.295-.07.853 1 1.28 1.556 1.802 2.342-.095 3.856-.987 5.627-.949 1.872-4.294 6.375-5.166 8.294-1.02 2.248-1.645 2.231-3.144.283-.211-.276-.023-.895-.026-.568M194.805 747.468c.134-3.707.126-6.858.406-9.991.13-1.458.297-2.923.522-4.376.27-1.44.654-2.852 1.076-4.244.174-.557 2.093-1.048 2.914-.74.842.316 2.035 1.822 1.862 2.468l-1.016 3.665-.89 3.697-1.863 7.39c-.213.86-.256 1.807-.659 2.559-.179.332-1.106.474-1.604.348-.42-.106-.705-.728-.748-.776M195.334 760.269c1.626.88 1.341 2.371 1.272 3.663-.07 2.765-.444 5.534-.824 8.29-.243 1.886-.948 3.756-.916 5.632.022 1.4-.57 2.076-2.1 2.443-.193.048-.647-.241-.661-.41-.41-4.59-.038-8.828-.428-13.467-.067-.926-.304-1.852-.402-2.772-.175-1.855 1.633-3.715 4.06-3.38M203.114 712.444c.468-2.468 1.604-6.512 1.94-8.27.291-1.721.552-3.463 1.223-5.054.337-.784 1.48-1.377 2.376-1.757.276-.117.958.733 1.446 1.147 2.062 1.75.405 3.421-.254 5.141-.638 1.835-3.1 6.499-3.636 8.374-.616 2.194-1.222 2.314-2.98.915-.247-.197-.165-.787-.115-.496M201.11 843.811l-2.175-4.254c-.669-1.35-1.233-2.675-1.785-4.015-1.014-2.503-1.968-5.085-2.508-7.75-.118-.532.92-1.737 1.577-1.824.673-.09 2.058.642 2.209 1.237.537 2.272 1.184 4.52 1.781 6.787.595 2.268 1.156 4.55 1.879 6.786.238.784.623 1.562.696 2.34.03.345-.494.867-.864.986-.31.1-.761-.272-.81-.293M208.854 855.705c1.513-.05 2.022 1.295 2.573 2.38 1.197 2.307 1.995 4.858 2.963 7.307.668 1.674 1.01 3.546 1.865 5.08.638 1.145.524 1.979-.378 2.99-.114.128-.557.1-.643-.034-2.296-3.6-3.995-7.214-6.151-10.936-.44-.737-.965-1.41-1.453-2.116-.98-1.424-.611-3.787 1.224-4.671M192.06 810.413c-.351-1.224-.728-2.88-1.08-4.453-.298-1.577-.482-3.083-.682-3.969-.342-1.724-.99-3.473-.953-5.217.032-.86.898-1.834 1.609-2.512.22-.208 1.179.346 1.796.557 1.302.448 1.714 1.208 1.801 2.087.098.878-.027 1.859.031 2.77.076.96-.014 2.738-.096 4.526-.09 1.79.062 3.57.217 4.525.433 2.227-.065 2.601-2.311 2.088-.318-.074-.512-.645-.333-.402M250.658 930.148c-2.695-2.54-5.124-4.55-7.216-6.844-1.959-2.131-3.821-4.389-5.396-6.794-.316-.479.627-2.264 1.434-2.702.828-.45 2.831-.416 3.22.125 2.957 4.1 5.59 8.42 8.505 12.56.5.728 1.189 1.383 1.47 2.179.124.354-.436 1.138-.89 1.426-.382.243-1.059.05-1.127.05M260.175 939.274c1.853-.596 2.722.672 3.611 1.634 1.933 2.023 3.494 4.393 5.115 6.686 1.116 1.564 1.83 3.466 3.178 4.8 1.003 1.001 1.01 1.913.06 3.254-.118.17-.678.282-.81.17-3.547-2.992-6.08-6.405-9.554-9.477-.689-.616-1.469-1.138-2.208-1.702-1.478-1.145-1.442-3.791.608-5.365M230.604 900.19c-1.795-2.051-4.562-5.65-5.758-7.156-1.207-1.44-2.619-2.776-3.544-4.378-.457-.79-.173-2.109.127-3.086.09-.3 1.331-.289 2.044-.41 3.02-.514 3.328 1.933 4.387 3.607 1.076 1.789 3.33 6.96 4.607 8.64 1.471 1.978 1.14 2.547-1.347 3.023-.352.067-.806-.396-.516-.24M313.906 1003.384c-3.001-1.997-5.538-3.65-7.923-5.479-2.207-1.719-4.365-3.536-6.195-5.585-.366-.409.34-2.212 1.08-2.734.756-.534 2.73-.769 3.18-.312 3.432 3.449 6.669 7.062 9.966 10.632.58.618 1.344 1.14 1.719 1.848.167.312-.298 1.115-.714 1.44-.35.275-1.046.18-1.113.19M325.093 1014.057c1.568-.719 2.494.366 3.393 1.17 1.923 1.718 3.555 3.79 5.232 5.782 1.154 1.358 2.024 3.022 3.341 4.162.986.851 1.087 1.698.388 3.016-.089.165-.57.312-.697.217-3.41-2.517-6.084-5.382-9.442-7.968-.671-.513-1.413-.929-2.122-1.39-1.432-.925-1.721-3.347-.093-4.989M290.105 978.585c-2.057-1.612-5.247-4.532-6.674-5.696-1.404-1.127-2.98-2.122-4.135-3.442-.571-.652-.517-1.916-.395-2.87.037-.292 1.229-.491 1.894-.724 2.814-.98 3.532 1.237 4.835 2.608 1.356 1.47 4.366 5.897 5.847 7.266 1.73 1.61 1.495 2.183-.836 3-.33.116-.84-.241-.536-.142M383.49 1072.785c-2.973-1.958-5.53-3.52-7.933-5.298-2.237-1.664-4.424-3.444-6.348-5.459-.387-.402.073-2.281.702-2.851.644-.583 2.455-.914 2.924-.466 3.561 3.394 6.961 6.965 10.407 10.489.602.613 1.354 1.13 1.78 1.84.186.314-.165 1.155-.517 1.506-.299.296-.954.228-1.015.239M396.79 1080.815c1.677-.88 2.759.155 3.791.907 2.208 1.602 4.117 3.596 6.07 5.506 1.337 1.305 2.361 2.974 3.873 4.032 1.13.795 1.284 1.66.581 3.082-.089.179-.61.372-.754.287-3.882-2.3-6.931-5.071-10.78-7.42-.766-.469-1.601-.831-2.408-1.242-1.62-.828-2.074-3.3-.373-5.152M356.856 1048.726c-2.074-1.54-5.308-4.382-6.777-5.47-1.418-1.073-2.98-2.001-4.194-3.285-.599-.635-.705-1.928-.71-2.91 0-.303 1.062-.574 1.641-.849 2.452-1.16 3.381 1.072 4.74 2.402 1.426 1.423 4.718 5.784 6.222 7.122 1.77 1.56 1.62 2.157-.416 3.109-.288.134-.795-.204-.506-.12M458.702 1136.518c-2.97-1.907-5.524-3.406-7.942-5.143-2.25-1.623-4.436-3.405-6.425-5.38-.397-.396-.093-2.337.467-2.943.574-.62 2.281-1.028 2.76-.586 3.636 3.355 7.11 6.917 10.658 10.39.618.605 1.377 1.104 1.824 1.822.2.319-.078 1.195-.39 1.565-.266.313-.894.261-.952.275M470.674 1144.914c1.557-.952 2.657.08 3.697.818 2.214 1.584 4.194 3.541 6.196 5.428 1.372 1.288 2.47 2.948 3.983 3.996 1.131.784 1.334 1.663.747 3.134-.074.186-.562.397-.707.313-3.854-2.26-6.985-4.965-10.837-7.239-.77-.451-1.592-.804-2.39-1.2-1.607-.798-2.198-3.315-.689-5.25M432.472 1115.447c-2.372-1.4-6.063-4.07-7.72-5.085-1.62-.98-3.395-1.797-4.797-3.012-.693-.6-.863-1.924-.912-2.936-.015-.312 1.154-.683 1.787-1.018 2.672-1.412 3.8.808 5.367 2.058 1.66 1.327 5.44 5.601 7.18 6.834 2.029 1.457 1.888 2.087-.338 3.238-.314.164-.892-.141-.567-.079M536.002 1197.616c-3.32-1.765-6.182-3.127-8.875-4.773-2.516-1.528-4.976-3.203-7.217-5.105-.446-.379-.152-2.4.453-3.066.622-.679 2.499-1.219 3.041-.797 4.103 3.192 7.993 6.664 11.99 9.998.696.582 1.545 1.046 2.056 1.755.226.314-.063 1.236-.402 1.639-.286.341-.982.332-1.046.349M548.923 1205.773c1.46-1.016 2.58.007 3.625.73 2.233 1.55 4.236 3.514 6.279 5.377 1.397 1.275 2.546 2.939 4.067 3.966 1.135.768 1.376 1.66.884 3.175-.063.191-.525.418-.668.338-3.85-2.205-7.03-4.865-10.868-7.096-.766-.445-1.582-.775-2.377-1.158-1.6-.771-2.303-3.318-.942-5.332M507.865 1176.01c-2.358-1.376-6.078-3.99-7.745-4.964-1.624-.948-3.388-1.727-4.816-2.92-.705-.588-.945-1.936-1.05-2.966-.032-.316 1.072-.727 1.66-1.085 2.49-1.504 3.716.716 5.305 1.94 1.687 1.299 5.598 5.526 7.337 6.752 2.037 1.436 1.945 2.072-.139 3.309-.295.174-.869-.122-.552-.066M615.932 1255.94c-3.24-1.433-6.021-2.536-8.666-3.875-2.46-1.257-4.865-2.656-7.066-4.268-.439-.322-.193-2.173.38-2.806.586-.649 2.39-1.233 2.92-.877 4.013 2.701 7.855 5.629 11.774 8.458.682.495 1.51.873 2.016 1.491.224.274-.036 1.126-.356 1.51-.27.322-.942.348-1.002.368M627.569 1263.397c1.623-1.061 2.842-.223 3.989.34 2.449 1.21 4.632 2.828 6.853 4.36 1.517 1.05 2.763 2.47 4.43 3.27 1.245.597 1.5 1.392.935 2.828-.07.18-.585.431-.74.37-4.231-1.653-7.685-3.827-11.893-5.521-.838-.337-1.74-.564-2.612-.841-1.757-.556-2.492-2.836-.962-4.806M587.808 1234.347c-2.294-1.09-5.912-3.214-7.533-3.986-1.578-.754-3.288-1.349-4.68-2.33-.685-.489-.94-1.671-1.058-2.582-.035-.28 1.022-.708 1.584-1.059 2.375-1.479 3.586.434 5.136 1.434 1.644 1.063 5.475 4.607 7.168 5.6 1.984 1.163 1.903 1.735-.084 2.95-.28.172-.84-.06-.533-.027M698.96 1310.324c-3.243-1.367-6.014-2.422-8.659-3.736-2.469-1.221-4.9-2.578-7.128-4.185-.445-.32-.318-2.227.2-2.891.53-.68 2.244-1.325 2.78-.972 4.062 2.66 7.973 5.556 11.952 8.351.694.486 1.523.848 2.055 1.467.234.274.036 1.155-.25 1.557-.241.34-.892.388-.95.409M709.767 1315.97c1.488-1.136 2.733-.316 3.88.235 2.456 1.174 4.677 2.793 6.95 4.284 1.552 1.025 2.868 2.447 4.537 3.222 1.248.576 1.564 1.378 1.138 2.874-.053.189-.529.465-.686.408-4.217-1.57-7.745-3.678-11.938-5.31-.836-.324-1.722-.535-2.587-.795-1.738-.528-2.629-2.844-1.294-4.918M666.968 1289.758c-2.294-1.052-5.93-3.125-7.55-3.872-1.578-.727-3.275-1.29-4.678-2.265-.693-.481-1.007-1.68-1.17-2.603-.051-.285.954-.745 1.483-1.117 2.23-1.57 3.506.36 5.07 1.34 1.656 1.041 5.58 4.556 7.28 5.525 1.998 1.132 1.948 1.719.086 3.006-.264.182-.82-.038-.52-.014"/></g></svg>
