<svg xmlns="http://www.w3.org/2000/svg" fill="none" viewBox="0 0 48 48" height="256" width="256"><path fill="currentColor" d="M11.5195 31.0486C6.72321 27.6563 4.00628 25.4124 2.48448 24.014C1.65141 23.2485 1.21138 22.2023 1.2928 21.1226C1.37428 20.042 1.96718 19.0729 2.91015 18.4426C6.52831 16.0242 13.5567 12.34 20.9779 9.04213C28.382 5.75185 36.3709 2.75865 41.8916 1.81371C44.5768 1.35408 46.673 3.57128 46.4885 6.10025C46.1031 11.3826 44.8831 19.0335 43.3184 26.1455C41.7675 33.1947 39.8254 39.9668 37.9236 43.346C36.8855 45.1907 34.7302 45.464 33.1478 44.6597C31.7664 43.9575 29.5421 42.7367 26.2654 40.695C23.3272 43.7949 19.9276 46.032 16.5372 46.6841C18.1789 41.6515 19.9286 34.5409 20.3564 32.776C20.3755 32.6974 20.4035 32.6432 20.4423 32.5943C23.4334 28.8257 28.3348 23.3196 32.5129 18.7308C34.5969 16.442 36.4925 14.3906 37.8671 12.9114C38.5543 12.1719 39.1112 11.5756 39.496 11.1644C39.6884 10.9588 39.8378 10.7995 39.939 10.6917L40.0927 10.528C40.6605 9.92478 40.6317 8.97547 40.0285 8.4077C39.4252 7.83993 38.4759 7.8687 37.9081 8.47197L37.7516 8.63854C37.6495 8.74737 37.499 8.90778 37.3056 9.11452C36.9186 9.528 36.3594 10.1269 35.6695 10.8692C34.29 12.3537 32.3872 14.4128 30.2946 16.7111C26.1194 21.2966 21.1544 26.8714 18.0925 30.7293C17.7721 31.133 17.5579 31.5862 17.4408 32.0692C17.0161 33.8214 15.3763 40.4734 13.8258 45.3193C13.8171 45.3056 13.8087 45.292 13.8004 45.2786C13.4254 44.6713 13.1441 43.918 12.9226 43.1496C12.4756 41.598 12.1761 39.6343 11.9713 37.7609C11.7647 35.8711 11.6472 34.0027 11.5812 32.6118C11.5513 31.9812 11.5318 31.4462 11.5195 31.0486Z"></path></svg>
