<svg xmlns="http://www.w3.org/2000/svg" fill="none" viewBox="0 0 48 48" height="256" width="256"><path fill="currentColor" fill-rule="evenodd" d="M21.2969 2.21186C22.9991 1.28398 24.9943 1.28384 26.6966 2.21161C28.8232 3.3706 32.4146 5.76337 37.4736 10.5942C41.2609 14.2108 43.7757 16.9047 45.4011 18.7814C46.398 19.9325 46.6816 21.4153 46.1416 22.7109C45.6032 24.0029 44.355 24.8477 42.8445 24.9656C42.4332 24.9978 41.9859 25.03 41.5001 25.0617V31.9999C41.5001 36.4733 41.2991 39.6572 41.0996 41.7161C40.8626 44.1614 38.9209 45.9653 36.5203 46.1339C34.0601 46.3068 29.9743 46.4999 24.0001 46.4999C18.0258 46.4999 13.9401 46.3068 11.4799 46.1339C9.07927 45.9653 7.13758 44.1614 6.90059 41.7161C6.70104 39.6571 6.50009 36.4733 6.50009 31.9999L6.50009 25.0621C6.01112 25.0302 5.56117 24.9978 5.14764 24.9655C3.63746 24.8476 2.38934 24.0031 1.85088 22.7113C1.31091 21.4158 1.59438 19.9332 2.59113 18.7822C4.21635 16.9055 6.73146 14.2112 10.52 10.5941C15.5796 5.76364 19.1706 3.3709 21.2969 2.21186ZM18 36C16.8954 36 16 36.8954 16 38C16 39.1046 16.8954 40 18 40H30C31.1046 40 32 39.1046 32 38C32 36.8954 31.1046 36 30 36H18Z" clip-rule="evenodd"></path></svg>