<svg width="1440" height="48" viewBox="0 0 1440 48" preserveAspectRatio="none" xmlns="http://www.w3.org/2000/svg"><path d="M176.914 48H172.8l-1.029-1-6.171-3-5.143-4-2.057-1h-3.086l-10.285 1-5.143-2-7.2-3h-8.229l-3.086 2h-17.485L92.57 34l-3.085 1-4.115 1-1.028-1-9.257 1-4.115 1-8.228 2-10.286 5-7.2-1-3.086-2h-7.2l-5.142-1H27.77l-5.142-1-6.172-1-3.086-3-9.257-6L0 3V0h1440l-1.029 3-1.028 3-2.057 3-8.229 2-4.114-1-4.114-3-2.058-1-7.2-3-3.085-1L1404 1l-8.229 2h-14.4l-1.028-1-5.143 2-4.114 3-1.029 1-10.286-2-3.085-1-10.286 1-4.114-1-1.029-1L1332 5l-5.143 2h-2.057l-7.2-1-3.086 1h-7.2L1296 10l-11.314 1-16.457 1-15.429-2h-14.4l-14.4 1h-9.257l-15.429-4-2.057 1-3.086 1-5.142-1h-24.686L1144.8 7h-1.029l-6.171-2-3.086 2-4.114 3-8.229 6-5.142 2-9.258 1-4.114-2h-2.057l-9.257-1-7.2-1-2.057-1v-1l-2.057-2-7.2 2-4.115 1-4.114-2-5.143 1-12.343 3-7.2 1-11.314 3-12.343 1h-2.057l-17.486 1-5.143 2-7.2 5-4.114 2-7.2-1-3.086-1-6.171-1-7.2-2-10.286-1h-5.143l-7.2-1-3.085-1h-2.057l-5.143 1h-5.143l-2.057 1-8.229-1-4.114-3-2.057 1-4.115 3-6.171 3h-6.171l-6.172 1-2.057-1-7.2-1-4.114 1-5.143 1-9.257-2-9.257 1h-18.515l-22.628-1L792 25l-4.114-3-3.086-2h-6.171l-6.172 1-6.171 3h-14.4l-2.057 2-5.143 1h-8.229l-6.171-2h-4.115l-7.2-1h-2.057L705.6 25l-12.343-4-6.171-2-6.172-2-4.114-1-8.229 4-4.114-1-4.114-2-5.143-1-1.029 1-4.114 4h-10.286l-6.171 2-12.343-4-1.028-2-3.086-4-2.057-3-4.115-3h-3.085L604.8 6V4l-2.057-2-2.057 1-2.057 3-2.058 1-2.057-2-3.085-1-4.115 3h-3.085l-7.2-4-7.2 1-4.115 1-10.285-1-7.2-3-2.058-1h-10.285l-2.057 1-7.2 2h-3.086l-9.257 7h-2.057l-2.058-2-4.114-1-17.486-1h-11.314l-3.086-2-8.228-1-7.2 1h-3.086l-3.086 1-7.2-3-2.057-1-2.057-1-2.057 1-12.343-1-7.2 1-4.114 1-4.114 4h-2.058V2h-7.2l-4.114-1h-6.171l-4.115-1-7.2 1L360 5l-12.343-1-6.171 1-18.515-1h-2.057l-3.085 3-4.115 4-9.257 2-2.057-3-4.114 1h-1.029l-4.114 1L288 13l-9.257 3-5.143 3-3.086 5-1.028 1-3.086 1-4.114 1-4.115-2-2.057 1v1l-2.057 1-4.114-2-3.086 1-7.2 6-3.086 1-4.114 2-4.114 4-8.229 2h-2.057l-9.257-2-5.143-1-18.514 5z" fill="currentColor" fill-rule="nonzero"/></svg>
