<svg width="420" height="48" viewBox="0 0 420 48" preserveAspectRatio="none" xmlns="http://www.w3.org/2000/svg"><path d="M176.914 48H172.8l-1.029-1-6.171-3-5.143-4-2.057-1h-3.086l-10.285 1-5.143-2-7.2-3h-8.229l-3.086 2h-17.485L92.57 34l-3.085 1-4.115 1-1.028-1-9.257 1-4.115 1-8.228 2-10.286 5-7.2-1-3.086-2h-7.2l-5.142-1H27.77l-5.142-1-6.172-1-3.086-3-9.257-6L0 3V0h420l-.343 1-4.114 1-4.114 4h-2.058V2h-7.2l-4.114-1h-6.171l-4.115-1-7.2 1L360 5l-12.343-1-6.171 1-18.515-1h-2.057l-3.085 3-4.115 4-9.257 2-2.057-3-4.114 1h-1.029l-4.114 1L288 13l-9.257 3-5.143 3-3.086 5-1.028 1-3.086 1-4.114 1-4.115-2-2.057 1v1l-2.057 1-4.114-2-3.086 1-7.2 6-3.086 1-4.114 2-4.114 4-8.229 2h-2.057l-9.257-2-5.143-1-18.514 5z" fill="currentColor" fill-rule="nonzero"/></svg>
