<?xml version="1.0" encoding="UTF-8"?><svg id="b" xmlns="http://www.w3.org/2000/svg" viewBox="0 0 261.3 261.73"><g id="c"><path d="M125.35,2.83c-.72.76-2.75.7-2.41-.96.72-.77,2.75-.71,2.41.96h0ZM103.65,5.24c-3.46.08-5.37,1.7-7.23,3.38-11.13-2.24-15.57,5.81-24.59,7.23-.31-3.84,4.72-2.35,4.34-6.27,3.06.28,3.76-3.12,6.75-1.45,4.36-4,13.06-3.65,18.8-6.27,1.06.71,2.26,1.28,1.93,3.37ZM69.42,16.81c-5.45,6.76-15.15,9.28-20.25,16.39-3-.59-3.94,2.91-6.75.96,3.75-7.18,12.16-9.7,17.36-15.43,3.47-.07,6.27-.8,7.71-2.89,1.32-.35.97.96,1.93.96ZM55.92,90.09c-5.55-3.25-13.71,2.38-16.87-2.41-1.92-.15-1.31,2.23-2.89,2.41-3.27.22-4.54-1.57-7.23-1.93-4.45,1.99-10.56,2.21-16.39,1.93-.95,1.94-2.57,3.21-5.3,3.38.17,1.44,1.46,1.76,2.41,2.41,2.01,3.85-.85,6.31-.96,10.61-1.13.15-1.81.76-3.37.48-.01,1.62,2.23.98,2.89,1.93.28,5.14.1,13.02-2.41,16.87.89,2.22.72,4.43,1.45,6.27.25.63,1.92,2.3,1.93,2.41.05.73-1.72,1.71-1.93,2.89-.34,1.94,1.16,2.26.48,4.34-.71,1.38-2.23,1.95-3.37,2.89-.22,1.34,2.63-.38,2.41.96-.66,3.71,3.81,7.03.48,10.12.48.96,2.13.76,1.93,2.41-4.48,3.07,3.78,7.74-.48,10.61,1.36,1.63,2.93.04,4.34,1.45.42,1.55-1.25,1-1.45,1.93,1.51.74,4.43.06,5.3,1.45.28,5.1-3.31,6.33-7.23,7.23-2.43-3.03-2.09-8.84-3.86-12.53-.12-2.21,2.18-2,1.93-4.34.37-2.14-1.59-1.94-2.41-2.89.15-1.12-.08-1.85-.48-2.41-3.34-2.69-2.37-6.7-4.34-10.61-.09-1.69,1.63-1.59,1.93-2.89-1.4-.69-1.84-2.34-2.41-3.86,1.33-10.86-.11-19.73.48-30.86,0-1.76,1.37-2.16,1.93-3.38-.58-1.35-.53-3.33-.48-5.3,5.39-8.64,5.37-19.93,11.09-28.44,1.52.24,1.7-.87,3.37-.48.38-1.99-2.31-.91-1.93-2.89,3.39-10.27,11.44-15.88,15.43-25.55,4.02-2.73,6.39-7.11,12.05-8.2.93,1.94.3,4.65-1.93,4.82-2.04,4.55-5.54,7.64-8.68,11.09-4.3,7.59-7.87,15.92-13.98,21.7.74,2.78-1.78,6.17-2.41,9.16,1.33,2.67,4.84,1.31,7.23,1.45,4.7.27,9.96.73,14.46.96,6.28-3,15.01,1.74,21.21-1.45,2.38,2.19-.37,5.08-1.93,6.27ZM180.31,73.22c-1.97.52-1.23-1.66-2.41-1.93h-3.86c-8.54-7.05-19.85-11.32-32.3-14.46-5.84,1.33-13.31-3.2-18.32,0-1.58-.03-1.84-1.37-3.86-.96-10.85,2.97-21.5,6.15-29.89,11.57-1.12.15-1.85-.08-2.41-.48-1.31-.34.34,2.27-.96,1.93-2.55-1.37.66-3.49,1.45-4.34,5.42-5.89,16.74-8.6,26.03-11.57,1.36-.4,1.25.68,2.41.48,2.98-1.49,8.94-3.03,12.54-.96,2.44-3.13,8.05,1.45,12.05-.48,15.18,2.98,28.44,7.88,38.09,16.39-1.4,3.39,2.84,2.96,1.45,4.82ZM131.62,71.29c-1.4-.85-3.49-1.01-5.3-1.45-1.32-5.43-.51-15.34,5.79-10.61.54,3.05.34,7.98-.48,12.05ZM143.19,62.13c-.04,2.88-1.44,4.65-.48,7.23-2.09.01-2.5,2-2.41,2.89-5.3-1.87-2.97-8.2-3.37-12.53,2.81-1.37,5.26.51,6.27,2.41ZM121.97,64.06c-.51,3.22-1.86,4.64-1.93,7.23-3.73-.16-2.2-2.84-4.82-4.34-2.56-8.16,4.82-8.36,6.75-2.89ZM152.83,63.1c.47,2.56.61,6.92-1.93,8.68,2.22,2.22,3.46,8.26.96,11.09h-3.38c-2.19-2.63-1.25-7.61,0-10.61-2.2-3.75-2.58-15.57,4.34-9.16ZM109.92,62.61c.92,2.48-1.26,4.86-1.45,7.71-1.96-.86-.67-3.11-3.86-1.93-.29-1.15-.69-2.2-.48-3.86,1.37-1.2,2.75-2.39,5.79-1.93ZM162.95,68.88c.02,1.79-.74,2.79-1.45,3.86,2.16,1.98,1.75,7.96,0,10.12-1.65.85-3.11-.08-4.34-.96-.24-4.54-.95-8.01,2.41-9.64-1.14-1.28-3.63-3.75-1.93-6.27,2.03-1.03,4.84.8,5.3,2.89ZM99.8,67.44c.16,2.09-1.33,2.53-2.89,2.89-2.34-1.46.59-4.79,2.89-2.89ZM131.13,72.26c1.39,2.31,1.08,6.31,1.45,9.64-1.14.95-3.23.95-4.82,1.45-1.34-.75-1.81-2.37-2.89-3.37,1.34-2.03,1.3-5.45,2.41-7.71,1.92.35,1.94.35,3.86,0ZM119.56,72.74c.39.26.78.5,1.45.48-.39,4.05-.3,5.34,1.45,7.71-1.04,2.17-4.29,2.14-7.23,2.41-.14-3.35-.04-6.47.96-8.68,1.96.19,3.36-.18,3.37-1.93ZM58.82,87.2c3.17-.85,4.71-3.32,8.2-3.86,1.21-.72,1.69-2.16,2.41-3.37,3.58-1.48,5.64-8.82,10.61-5.79-1.57,4.06-6.01,5.24-7.71,9.16.34,2.48,3.66,2.02,5.79,1.45,5.95.78,11.93.36,18.32-.48.19-1.79-2.32-.89-2.41-2.41.33-3.69-.29-8.32,3.86-8.2,1.99,2.2,3.8,8.94,0,10.12,4.28,2.69,13.76-.12,17.84,1.93.07,3.12-4.47,1.63-5.78,3.38-18.09-.28-34.85.53-50.62,0,.06-.86-.59-1.02-.48-1.93ZM142.22,73.22c.56,2.5,1.32,4.79.96,8.2-1.12,1.01-3.99,2.17-5.78.96-1.11-3.52-.16-10.4,4.82-9.16ZM181.27,81.9c-3.54,1.91-9.23.39-13.02.48-2.11-5.32.39-10.88,5.79-7.71,2.28,1.34,6.41,5.11,7.23,7.23ZM179.83,73.7h.96c4.24-.38,4,3.72,7.71,3.86.97,3.05,3.93,4.1,5.3,6.75,1.67-.86,3.34-.14,4.34.96,2.83-2.39,6.84-.97,10.12-1.45,2.48-.36,5.12-2.9,7.71-.96.69,1.29-.43,4.19-.96,5.79-15.65,1.53-33.98-.11-50.14.48-1.47.02-2.45-.44-2.89-1.45-1.52-.23-1.09,1.48-2.89.96-1.82.21-2.26-.95-3.37-1.45-1.57.52-2.51,1.67-4.34,1.93-3.38-1.3-7.39.98-10.12-.96-7.29.82-17.77,1.46-25.07,0,.18-2.71,3.29-2.5,4.82-3.86,10.4.31,21.57.95,31.34,0,.44.85,1.69.88,2.41,1.45,4.44-1.13,11.9-1.46,16.87-.48,3.77-2.16,9.71-.47,14.46-1.45-.31-5.15-6.18-4.75-6.27-10.12ZM88.71,82.86c-3.52-.44-6.89,1.53-9.16-.48-.08-2.94,3.19-3.68,4.82-5.3.91-.9.9-3.22,3.37-2.89,2.21,1.86.89,6.1.96,8.68ZM109.44,83.35c-2.11.02-3.76-.42-5.3-.96,1.03-2.45-.69-4.72.48-6.75,3.77-5.11,8.09,4.17,4.82,7.71ZM203.93,171.57c2.12-.36,1.98,1.56,3.37,1.93,1.89-.64,4.06-2.07,6.27-.96.74.88.74,3.94,0,4.82-4.65,1.04-10.57,1.38-13.02-1.93.02-2.39,1.87-2.95,3.37-3.86ZM40.98,174.46c-1.16,3.07-8.03,2.83-10.12.96.95-3.18,8.94-4.92,10.12-.96ZM64.6,173.5c-.41,3-6.78,3.95-9.16,1.93-1.03.97-4.3,1.49-5.79.48-.89-3.26,3.62-3.09,6.27-3.37,3.18-.34,7.96-.89,8.68.96ZM85.82,173.98c-3.36,4.44-11.51-1.24-13.02,4.34-.97-1.6-3.33-1.82-4.34-3.37,1.39-5.78,10.32-1.13,15.43-2.89.44.85,1.08,1.49,1.93,1.93ZM91.6,173.02c.26,1.71-.41,2.48-1.45,2.89-2.12.36-1.97-1.56-3.37-1.93.93-2.12,2.89-1.98,4.82-.96ZM114.26,173.02v2.41c-1.47.39-3.92,1.52-5.3.48-.36-3.34,3.3-4.71,5.3-2.89ZM161.99,174.46c-1.79,3.67-6.82,1.4-11.09,1.45-.2-4.82,9.71-5.17,11.09-1.45ZM134.99,176.39c-4.99-.56-10.08,1.8-11.57-2.41,2.76-2.39,13.25-2.31,11.57,2.41ZM166.81,175.91c-1.94-.14-3.47-.71-3.38-2.89,1.82-1.35,4.08.19,3.38,2.89ZM170.18,172.54h3.37c-.16,1.49,1.12,2.3,0,3.37-1.94-.31-3.49-1.01-3.37-3.37ZM27.96,174.95c-.41,2.57-6.68,2.48-8.2.96.33-4.23,6.31-2.89,8.2-.96ZM187.06,173.02c3.35-.3,4.04,2.07,5.78,3.38-.51,1.9-1.89,2.93-3.86,3.37-1.18,1.14.72.9.48,2.41-3.94,6.02-10.3,9.63-14.95,14.94-1.12-.15-1.85.08-2.41.48-3.18,3.89-8.72,5.42-13.5,7.71h-3.38c-1.62.63-3.15,1.35-4.34,2.41-2.8-.72-4.36.16-6.75.96-1.5-.27-3.14-.39-4.34-.96-3.62,2.38-8.49,1.75-14.95,1.93-1.77-.32-2.4-1.78-3.37-2.89-1.01.76-1.53,2-2.89,2.41-.9-.54-2.32-.57-1.93-2.41-4.17.63-10.56-.25-13.5-2.41,3.05-3.38,10.73-.58,13.02,1.45,6.82-.64,10.7-.12,16.39.48,7.01-1.68,13.85-1.16,20.73-3.38,2.85-2.62,7.06-3.87,11.09-5.3,2.94-2.2,5.9-4.39,9.16-6.27,4.59-3.45,7.66-8.41,13.02-11.09.8-2.84-.45-4.92.48-7.23ZM139.33,175.91c-1.19.06-2.32.07-2.89-.48.21-1.68,3.26-2.02,2.89.48ZM132.58,201.94c-1.51-.1-3.54.33-4.34-.48-.42-4.74-.07-10.29-.96-15.43.67-2.07,1.08-4.39,4.34-3.86.08-2.6-1.97-.28-2.89-1.45.07-2.03,2.37-2.13,3.86-1.45,2.7,5.48,2.26,16.69,0,22.66ZM164.4,178.8c.85.12,1.1.83.96,1.93h-1.93c-.55-1.52.76-1.17.96-1.93ZM181.27,179.77c-2.82,2.65-5.25,5.68-8.2,8.2-1.19.06-2.32.07-2.89-.48.82-2.39.81-5.61,2.41-7.23,1.84-.23,3.08.14,3.86.96,2.07.28,3.1-2.98,4.82-1.45ZM153.31,179.77c1.59-.35.74.96,0,.96,3.31,3.74,2.55,9.48,2.41,15.91-1.49.93-2.42,2.4-4.82,2.41-1.14-4.48-1.76-11.58-.48-17.84,1.07-.37,2.61-.28,2.89-1.45ZM143.67,180.73c.93,1.79,2.26,2.81,1.93,5.3-.08.61-1.44,1.49-1.45,1.93,0,.56.87,1.74.96,2.41.46,3.14.02,6.62-.48,10.12-2.25-.22-3.1.95-4.82,0-1.13-6.03-1.96-15.31,1.45-19.77h2.41ZM121.49,181.7c.15,1.12-.08,1.85-.48,2.41,1.16,1.35,2.53,5.62.48,7.23,1.02,2.38,2.17,6.3.48,8.68-2.01.08-4.02.17-4.82-.96-.24-2.19.38-6.77,2.89-7.71-3.36-.85-5.01-12.63,1.45-9.64ZM102.21,201.94c-3.44,4.08-6.36-2.7-11.09-1.93-5.68-5.57-13.91-8.59-17.36-16.39.06-1.23.7-1.87,1.93-1.93,2.95,1.55,5.9,3.1,7.23,6.27,4.81,1.77,8.04,5.14,10.61,9.16,4.59-.09,6.46,2.54,8.68,4.82ZM92.08,186.52c-1.67,4.35-7.66-.09-7.23-3.86,3.24-2.24,4.98,2.27,7.23,3.86ZM101.24,182.18c2.49,3.97.16,8.05,0,11.57-6.41,2.49-6.76-12.3,0-11.57ZM107.51,182.18c2.41.81,2.86,3.57,4.82,4.82.12,4.46-.46,8.22-1.45,11.57-1.76.31-2.57-.33-3.37-.96,1.23-5.21-.87-8.2,0-15.43ZM161.02,194.71c-1.51-2.93-.95-7.72-.48-11.57,7.89-4.77,8.49,12.92.48,11.57ZM22.66,189.41c-1.64,6.35,5.15,8.32,5.79,13.98.82,1.6,2.6,2.22,3.86,3.37,1.26,5.33,6.03,7.15,7.71,12.05,2.76,1.58,5.42,3.26,6.27,6.75,1.25.68,3.19.67,4.34,1.45-.34,2.43.87,3.31,1.45,4.82,4.07-1.21,6.74,1.95,7.71,5.3,5.28,1.47,9.84,3.66,12.54,7.71,4.05.93,8.2,1.76,10.12,4.82,2.13-.2,3.73.13,4.82.96v2.89c-2.3.37-3.1-.75-5.3-.48-1.02-2.19-3.83-1.44-5.79-2.41-.56-.28-.81-1.65-1.45-1.93-1.07-.47-3.03-.45-4.34-.96-3.64-1.44-5.74-4.26-9.16-6.27-2.66-1.57-5.78-1.51-6.75-4.82h-2.41c.31-2.08-.83-2.7-1.45-3.86-2.62.53-3.03-1.15-4.82-1.45-1.84-3.62-4.46-6.47-8.68-7.71-9.51-11.38-18.16-23.62-25.55-37.12.16-1.13.58-1.99.96-2.89,6.34-2.65,6.04,4.66,10.12,5.79ZM70.87,203.39c3.08-.38,4.54-4.12,7.71-2.89-.32,3.7-1,7.03-4.82,7.23v-2.41c-2.3-.54-2.03,1.5-4.34.96-3.13-.73-2.9-4.82-7.71-3.86.46-8.98,6.74-1.57,9.16.96ZM190.43,211.1h0c-1.48,1.57-3.55,2.55-4.34,4.82,1.81-.44,3.12-1.38,5.3-1.45,2.18.71,1.8,3.98,4.82,3.86-1.13-4.66,2.73-4.34,4.34-6.27-1.13-1.12-3.22-1.28-3.86-2.89-.11-1.55.85-2.04.48-3.86-2.76-.84-1.82,2.04-3.86,1.93-2.45.2-2.82-1.68-4.34-2.41-1.14,2.34,1.86,3.2,1.45,6.27ZM201.52,200.5c.18,3.23-1.01,5.1-1.45,7.71,2,2.02,4.08,3.96,6.75,5.3-.89,2.33-3.7,2.73-6.75,2.89-2.28,1.58-1.69,6.02-4.34,7.23-3.87-.79-3.62-5.7-6.75-7.23-1.45,1.12-3.33,1.81-6.27,1.45-1.16-3.38,2.99-4.84,3.86-7.71-.08-4.1-3.43-4.92-3.37-9.16,4.77-1.77,5.05,3.16,9.16,2.89,3.53-.23,5.34-7.24,9.16-3.38ZM65.57,204.84c.45,3.66-1.59,4.84-3.86,5.79.54,2.03,3.32,1.82,4.82,2.89.38,2.15-.64,2.89-.48,4.82,3.27.7,1.94-3.2,3.37-4.34,2.28-.36,3.31.54,5.3.48-.27-2.14-2.54-2.28-2.41-4.82,4.31.35,6.52,2.81,7.23,6.75-2.25,1.98-7.01-.3-9.16,2.41-.82,2.23-1.97,4.13-5.3,3.86.02-.82-.36-1.25-.96-1.45.55-2.55-.15-2.8-.48-5.3-1.22-2.48-5.54-1.85-7.71-3.38,1.08-4.38,6.07-4.86,8.2-8.2.78-.14.83.46,1.45.48ZM98.35,253.53c-.55,5.79-7.47,2.31-9.16,0,1.71-4.7,5.09,1.15,9.16,0ZM105.1,254.98c.49.96.83,2.06,1.93,2.41,2.69-1.14,5.69-1.2,7.23.96,3.63-.71,12.4-2.72,13.02,1.93-6.53.88-12.14.66-16.87-1.45-1.18.27-1.03,1.87-2.89,1.45-2.12.36-1.97-1.56-3.37-1.93-2.08.08-4.12,1.16-5.3-.48.61-2.45,3.07-3.04,6.27-2.89ZM158.13,256.42c.04,4.16-4.13,1.37-7.23,1.93-1.15,1.58-3.58,1.88-4.82,3.37-2.89-.33-3.85-2.58-5.79-3.86-.66.62-.48,2.09-.48,3.38-4.01.21-7-1.33-11.09-.48.75-3.59,8.15-3.09,11.09-2.89.64-.48,1.46-.79,1.93-1.45,1.49-.05,2.3.59,3.37.96,2.73-.75,3.1-1,6.75-.96,1.83-.78,4.99-2.69,6.27,0ZM219.84,32.24c.38,1.38.98,2.56,1.45,3.86,1.9.67,2.75,2.39,5.3,2.41.99,2.86,3.46,4.25,4.34,7.23,2.36,2.46,5.59,4.05,6.27,8.2.99,1.9,3.12,2.66,4.34,4.34.23,1.51-1.3,1.27-1.45,2.41.07,1.38,2.01.88,3.38.96.15,2.1,2.01,2.49,3.38,3.38v4.82c.21.92,1.04,1.21.96,2.41,3.99,2.6,4.86,8.31,7.23,12.54-1.74,7.61,4.58,12.13,5.3,18.32.84,7.21-1.1,13.46,0,21.21.23,1.52-.69,1.88-.96,2.89,1.09,2.64.76,5.57-.48,8.2.48,1.94,2,2.82,2.41,4.82-1.24,6.73-.15,16.72-3.86,22.18.12,7.03-3.6,10.22-3.86,16.87-6.81,8.62-8.89,21.97-18.32,27.96.28,1.57-.33,2.24-.48,3.38-3.11,1.71-4.31,5.34-6.27,8.2-1.67.39-1.85-.72-3.38-.48-1.78,1.05,1.44,1.07.96,2.41-1.4.37-1.25,2.28-3.38,1.93-2.32.23.96-2.78-1.45-2.89-2.78,1.12,1.41,3.6-.48,5.3-2.3.69-1.2-2.02-3.38-1.45-1.73,1.87,1.71,1.49,1.45,3.38-1.93,2.73-5.02,4.3-8.2,5.79-1.31,1.31,1.25,1.2.96,2.89-1.55.21-2.61.92-4.34.96-2.7,2.28-4.51,5.46-8.68,6.27-1.24.05-.77,1.8-1.45,2.41-4.59,1.67-8.45,4.09-14.46,4.34-2.53,2.94-6.87,4.06-10.12,6.27-2.09-1.35-2.72.48-4.34.96-.9.27-1.97-.2-2.89,0-2.37.52-4.97,2.61-6.75.48-.35-1.47.49-1.76.48-2.89,3.71-1.54,6.34-2.22,10.12-2.89,1.87-.42,1.72,1.18,2.89,1.45,1.22-.91-.44-1.69.48-2.89,2.48-.9,4.34-2.41,8.2-1.93,1.73-.36,2.04-2.14,3.38-2.89,7.38-.66,9.81-6.26,15.91-8.2,1.47-2.39,4.16-3.14,6.27-4.82,3.43-2.73,5.68-7.01,10.12-8.68.37-1.07,1.01-1.88.96-3.37.56-.4,1.29-.64,2.41-.48,1.5-1.71,2.76-3.66,3.86-5.79,2.38-2.15,5.45-3.84,8.2-4.34,0-2.41-2.51-4.34-.96-6.75,2.53-.44,1.97,2.2,3.86,2.41,2.51-1.48-2.57-2.16-1.93-4.82.96-1.45,2.49-2.33,3.86-3.38-.04-4.06.85-7.18,3.37-8.68-.26-3.32,1.31-4.8,1.93-7.23-1.02-3.8-7.75-1.89-6.27-8.2,2.22-1.39,6.37-2.63,9.64-1.45,3.05-2.49,2.11-7.09,2.89-11.09.33-1.69,1.49-3.09,1.93-4.82,1.71-6.78-.36-14.28,4.34-17.84-.32-1.29-1.38-1.83-1.93-2.89,2.43-3.12-1.54-7.59,1.45-9.64-.96-3.53-2.52-8.52-1.45-12.54-2.39-6.86-4.35-15-3.86-22.18-5.48-1.43-13.17-.65-18.32-2.41-1.52-.23-1.09,1.48-2.89.96-2.39-.34-4.46-1-6.75-1.45.12-5.42,7.44-6.28,11.57-4.82,3.84-1.51,7.14-3.29,11.57-1.93,1.04-1.38-2.24-2.57-1.45-5.3-7.16-8.91-10.5-21.64-20.25-27.96v-1.93c-6-7.17-13.83-12.52-20.25-19.28-5.32-1.27-7.47-5.71-13.02-6.75-1.96-3.67-7.91-3.34-10.61-6.27-3.24.35-4.79-.99-6.27-2.41-7.93-1.39-15-3.64-22.18-5.79-9.5-1.53-16.55.51-22.66-2.89-.11-2.67,3.66-2.09,4.82-.96,1-1.56,3.83-1.92,5.3-.48,11.63-1.47,21.9,2.5,32.78,3.37,8.35,4.5,17.32,8.39,26.52,12.05,1.68,2.65,4.9,3.77,8.2,4.82.57,1.52,1.5,2.68,2.41,3.86,6.58,0,6.35,6.82,12.54,7.23ZM120.05,3.32c-2.14.13-5.28,1.23-8.2,1.45-2.78.21-6.46.84-7.71-1.45-.66-2.05,1.18-.71,2.41-.96,2.24-.46,12.96-3.31,13.5.96Z" fill="currentColor" fill-rule="evenodd" stroke-width="0"/><path d="M63.14,45.33c3.08-.38,4.54-4.12,7.71-2.89-.32,3.7-1,7.03-4.82,7.23v-2.41c-2.3-.54-2.03,1.5-4.34.96-3.13-.73-2.9-4.82-7.71-3.86.46-8.98,6.74-1.57,9.16.96Z" fill="currentColor" fill-rule="evenodd" stroke-width="0"/><path d="M57.84,46.78c.45,3.66-1.59,4.84-3.86,5.79.54,2.03,3.32,1.82,4.82,2.89.38,2.15-.64,2.89-.48,4.82,3.27.7,1.94-3.2,3.37-4.34,2.28-.36,3.31.54,5.3.48-.27-2.14-2.54-2.28-2.41-4.82,4.31.35,6.52,2.8,7.23,6.75-2.25,1.98-7.01-.3-9.16,2.41-.82,2.23-1.97,4.13-5.3,3.86.02-.82-.36-1.25-.96-1.45.55-2.55-.16-2.8-.48-5.3-1.22-2.48-5.54-1.85-7.71-3.38,1.08-4.38,6.07-4.86,8.2-8.2.78-.14.83.46,1.45.48Z" fill="currentColor" fill-rule="evenodd" stroke-width="0"/><path d="M202.44,44.37c-4.82-.96-4.59,3.13-7.71,3.86-2.31.54-2.03-1.5-4.34-.96,0,.8,0,1.61,0,2.41-3.82-.2-4.51-3.53-4.82-7.23,3.17-1.22,4.63,2.52,7.71,2.89,2.42-2.53,8.7-9.94,9.16-.96Z" fill="currentColor" fill-rule="evenodd" stroke-width="0"/><path d="M200.03,46.3c2.13,3.34,7.12,3.81,8.2,8.2-2.17,1.52-6.49.9-7.71,3.37-.33,2.5-1.04,2.75-.48,5.3-.61.2-.99.62-.96,1.45-3.33.28-4.48-1.63-5.3-3.86-2.15-2.71-6.91-.43-9.16-2.41.72-3.94,2.92-6.4,7.23-6.75.13,2.54-2.14,2.69-2.41,4.82,1.99.06,3.02-.84,5.3-.48,1.44,1.14.1,5.04,3.37,4.34.16-1.93-.86-2.68-.48-4.82,1.5-1.07,4.28-.86,4.82-2.89-2.27-.95-4.31-2.12-3.86-5.79.62-.03.67-.62,1.45-.48Z" fill="currentColor" fill-rule="evenodd" stroke-width="0"/></g><g id="d"><path d="M38.46,115.01v3.11c-4.62,1.14-11.09-.72-15.05,0-2.74,2.72-.1,8.17,1.56,9.86,2.84-1.57,7.83-.16,10.38,1.56v3.11c-2.85,2.35-9.99.11-12.97,1.04.51,3.03-1.86,6.45,0,9.34-1.95,1.62-.89,3.28-1.56,5.71-6.17-.96-2.37-8.7-2.59-12.97-.06-1.03-.86-1.57-1.04-2.59-.14-.8.56-1.74.52-3.11-.08-2.69-2.04-8.43,1.04-10.9.12-1.67-.92-2.2-.52-4.15,6.05-.11,14.5-1.1,20.24,0h0Z" fill="currentColor" fill-rule="evenodd" stroke-width="0"/><path d="M174.41,144.56c-.54-.98-.18-2.88-.83-3.75-1.5-2.09-5.35-1.13-7.09,0-1.95.42-1.38-1.67-3.33-1.25-1.87-.2-1.86,1.47-3.33,1.67.74,2.19-.58,4.75-1.25,6.83-1.25.47-3.61,1.4-5,.42-.08-2.44,1.05-3.42,2.08-4.75-1.29-3.42,1.31-5.31,2.92-7.09-1.39-3.3,1.45-4.81,1.58-7.92,2.07.01,2.18,1.99,3.33,2.92.41,1.66-.74,1.25-.33,2.92,1.46,1.48,6.97.49,8.75-.42-1.65-3.49-1.65-9.38-3.26-12.92h-2.5c-1.29,1.35-.06,4.97-1.42,6.25-2.11.3-3.15-.46-4.17-1.25,1.16-3.28,2.44-6.2,2.67-10.42,2.25-1.53,7.24-2.76,9.08,0,.31,6.11,1.37,9.86,4.09,13.75-.03,1.35.29,2.56-.33,3.33.29,1.1,1.9.88,2.08,2.08-.21,1.18-1.01,1.77-1.25,2.92-.19,1.3,1.05,1.18,1.67,1.67-.86,3.24,2.22,5.75,2.34,9.18-.69.3-1.58.4-2.54.43-.66.02-1.6-.5-2.3-.52-1.17-2.05.91-4.43-1.67-4.09h0Z" fill="currentColor" fill-rule="evenodd" stroke-width="0"/><path d="M87.02,143.47c-.53-.96-.17-2.82-.82-3.67-1.47-2.04-5.24-1.11-6.93,0-1.91.41-1.35-1.64-3.26-1.22-1.83-.2-1.82,1.44-3.26,1.63.72,2.15-.57,4.65-1.22,6.68-1.23.46-3.53,1.37-4.89.41-.07-2.38,1.03-3.34,2.04-4.65-1.26-3.34,1.28-5.2,2.85-6.93-1.36-3.23,1.42-4.7,1.54-7.75,2.03.01,2.13,1.95,3.26,2.85.4,1.63-.73,1.23-.32,2.85,1.43,1.45,6.82.48,8.56-.41-1.61-3.42-1.62-9.18-3.18-12.64h-2.45c-1.26,1.32-.06,4.86-1.39,6.12-2.06.29-3.08-.45-4.08-1.23,1.14-3.21,2.39-6.06,2.61-10.19,2.2-1.5,7.08-2.7,8.89,0,.3,5.98,1.34,9.65,4,13.45-.03,1.32.28,2.51-.32,3.26.28,1.07,1.86.86,2.04,2.04-.21,1.15-.99,1.73-1.22,2.85-.19,1.28,1.02,1.15,1.63,1.63-.85,3.17,2.18,5.62,2.29,8.98-.68.29-1.54.39-2.48.42-.64.02-1.57-.49-2.25-.51-1.14-2.01.89-4.33-1.63-4h0Z" fill="currentColor" fill-rule="evenodd" stroke-width="0"/><path d="M143.26,143.58h0v1.52c1.9.37,2.43-.71,2.87-1.9.93.23,1.29-.15,1.08-1.14-1.7.1-1.35,2.37-3.95,1.52h0ZM151.52,136.74c.31,3.11-1.17,4.34-1.79,6.47-2.22,1.07-3.03,3.64-5.38,4.56-.35-.12-.71-.22-1.07-.33-1.86,3.08-5.8.79-8.72,1-.81-.95-2.41-1.87-3.23-2.82-.11-.03-.21-.07-.3-.12-1.22-.86.08-3.6-2.83-2.66,1.01-2.61.08-5.19-.93-6.85-.5-3.79,1.1-8.05-.72-9.89,1.47-2.1,2.18-3.36,2.51-6.09,2.21-1.21,4.49-1.81,7.04-2.66.04-1.68-1.2-1.56,0-2.66h1.79c.49,1.2.08,1.27,0,2.66,2.58.83,1.48-2.24,2.51-3.04,2.24-.15,3.51.76,5.38,0,.65.96,1.23,1.99,1.08,3.8,3.2.46,5.31,3.96,3.95,7.99-2.02-.14-3.15-1.23-4.67-1.9-.29-2.48-1.21-4.29-2.87-5.32-3.64-.31-5.72.5-8.11,1.52-2.98,4.14-3.8,9.43-3.23,15.59,1.14,2.55,1.21,5.81,3.09,7.48.92.82,1.46-.33,2.03.09.73.55,1.53,2.57,3.27,2.6-.24-.19-.46-.41-.64-.67,1.97-2.99,5.37-4.46,5.74-9.13,1.61-1.63,4.7-1.17,6.1.38Z" fill="currentColor" fill-rule="evenodd" stroke-width="0"/><path d="M234.89,119.01c-1.08.42-1.71,1.3-3.51,1,.76,2.93-1.25,3.09-2,4.51-.17,2,.89,2.78.5,5.01,4.74,3.1,11.27.6,13.03-3.51,2.28-.27,2.75,1.26,3.51,2.51-.79,3.19-3.52,3.67-3.01,7.02-4.8,1.22-11.94.09-14.04,4.01.97,2.9-.63,5.28.5,8.02-.82,1.25-3.76,2.27-5.51,1,.36-7.21-.57-12.45.27-17.72.35-2.22-.5-4.45.71-6.84-.26-2.88-.32-4.42-1.08-6.79-.21-.66-.36-1.39-.4-2.23,3.96-1.52,11.04-1.31,11.03,4.01h0ZM241.4,116.5c.33,3.51,4.84,2.84,4.51,7.02-3.84,1.38-5.52-2.97-8.02-4.51-.32-2.33,1.18-2.83,3.51-2.51Z" fill="currentColor" fill-rule="evenodd" stroke-width="0"/><path d="M47.97,115.1c-.83,3.84-.66,6.82-1.55,10.07-.16,1.57,1.65,1.19,1.93,2.32-2.52,2.17-1.45,6.02-1.34,9.48.04,1.35-.06,3.39-.59,4.5.66,1.27,1.68,1.27,2.99,1.13,1.86-.06,2.99,1.37,4.2,1.96,2.27-1.53,5.45-3.96,8.55-1.19-.06,2.12-.04,1.44.39,3.08-2.76,2.02-5.31.48-8.93.64-4.28.19-7.64,2.1-11.67.14.16-1.65-.13-3.99.64-5.03-1.06-1.91-.92-4.02-.94-6.97.62-.93-.06-1.67.45-2.71.19-1.22-.55-1.51-.78-2.32.86-3.67.8-9.4.39-13.94.38-3.18,4.39-2.78,6.28-1.16h0Z" fill="currentColor" fill-rule="evenodd" stroke-width="0"/><path d="M217.32,115.19c2.48,2.7.6,7.19.93,11.58,0,.24-1.07,2.73.46,3.7.18,2.8.22,5.22-.68,6.95.41,4.15,1.95,9.25-1.85,11.57-3.72-1.41-4.27-7.23-2.31-10.65-1.08-2.01-.83-5.85-1.81-7.95-2.89.57-3.32,3.84-2.65,6.1-1.56.45-1.55,1.7-2.49,2.78.47,1.76-.56,3.11-.88,4.23-.71,2.45-1.9,3.72-3.75,5.5-2.73-1.13-4.27-3.45-6.02-5.56.49-.93.85-1.78.75-2.63-.08-.64-1.05-2.18-1.42-2.81-.3-.5-.61-.95-.8-1.17-.82-.96-.73-1.39-.88-2.59-.13-1.11-.49-3.01-1.82-2.92-.7.49-1.11,2.27-1.3,3.26-.17.9.17,2.12-.31,2.87-.19.3-.27,1.17-.3,1.46-.12,1,.21,2.46.22,3.54.04,2.53-.3,5.26-2.47,6.54-3.99-.72-4.72-10.48-.46-11.57-.05-1.19-1.73-.74-2.31-1.39.9-2.17.78-4.54,0-7.02.46-4.89.38-8.82,0-13.46,3.09-1.54,6.67-1.93,8.46.92,0,1.08.25,2.66.25,3.74,3.05,3.89,4.38,11.52,7.49,15.36,2.19-1.36,2.27-4.83,5.56-5.09.07-3.04.92-4.89.54-6.48.06-1.79,1.88-1.83,2.31-3.24-1.29-3.2.81-5.27,3.13-5.99,1.8-.56,2.19-.21,4.41.43h0Z" fill="currentColor" fill-rule="evenodd" stroke-width="0"/><path d="M91.23,114.96c1.07-.24,2.13-.43,3.16-.57.53-.08,1.05.36,1.57.3,4.25-.45,8.74-.24,12.73-.04,1.22.06,2.69-.13,3.92-.09.54.02,1.09.03,1.63.04-.43,1.52,1.04,3.57-.35,4.69-2.67.04-6.22-1.07-8.08-.31.84,2,.73,3.3-.66,5.26.21.6.41,1.19.92,1.06-1.06,3.06.25,7.11-1.11,10.04,2.28,3.97.74,9.04.08,12.91-.67.34-1.71.37-2.23.36-.59-.01-1.35-.25-1.87-.32-.21-.73-.37-.94-.49-1.63-.44-2.7-.11-5.09.95-7.17-1.6-2.52-1.38-5.57-.43-7.97-.34-2.31-1.57-6.64,1.21-8.65-1.23-.7-3.01-1.19-1.94-3.02-2.43-1.23-5.89-.46-8.72-.71-1.15-1.83,1.18-2.22-.3-4.19h0Z" fill="currentColor" fill-rule="evenodd" stroke-width="0"/><path d="M150.38,222.06c-.99,2.9-.43,6.95-1.38,9.88-4.48,1.82-7.65,4.63-8.77,8.95,2.41,3.95,10.74-2.95,12.71,1.37.53,3.28-4.38,3.95-6.82,3.02-3.02.35-7.71,2.52-10.38.71-.7-4.39,3.56-5.09,1.71-10.34,5.75-1.12,7.16-5.46,9.56-9.06-.69-1.13-1.85-1.61-1.76-3.78-1.89-.78-4.55-.99-6.38.53-2.15,1.56-.38,6.05-3.87,6.62-.9-.84-.71-3.14-1.09-4.68.9-6.84,12.49-6.46,16.47-3.22h0Z" fill="currentColor" fill-rule="evenodd" stroke-width="0"/><path d="M113.55,222.62c-1.76,2.51-2.36,6.55-4.08,9.1-4.81.5-8.64,2.3-10.93,6.14,1.21,4.46,11.13.17,11.82,4.86-.41,3.3-5.31,2.57-7.39.99-3-.51-8.1.26-10.17-2.22.55-4.42,4.84-3.9,4.53-9.45,5.83.53,8.4-3.24,11.72-6.03-.34-1.27-1.33-2.06-.64-4.12-1.6-1.28-4.09-2.22-6.27-1.27-2.51.9-2.05,5.7-5.57,5.27-.63-1.06.19-3.21.26-4.8,2.77-6.31,13.79-2.72,16.71,1.51h0Z" fill="currentColor" fill-rule="evenodd" stroke-width="0"/><path d="M123.66,242.03h0c3.5-.16,3.31-5.46,4.75-7.93-.6-1.42-.35-3.59-.22-5.65-1.59-1.21-2.06-4.31-3.44-5.71-2.43-.16-3.8,1.44-5.23,2.39l-.12,2.14c-1.47,2.05-2.1,9.09-.63,11.26-.24.3-.39.7-.34,1.32.92,1.04,3.51,1.09,4.16,2.38-.56.52-1.61.47-1.7,1.52l2.14.12c.47-.33.17-1.51.64-1.84h0ZM125.18,219.94c2.34.2,3.15,2.69,4.85,4.3.52,1.91.51,5.19,1.37,6.79-.08,1.47-.29,2.29-.61,3.73-.4,1.8.17,3.86-.32,5.62-.24.89-3,4.6-4.05,5.15-1.73.9-4.21.47-6.74.43-1.48-.97-3.43-2.02-4.37-3.47.7-1.78.13-2.9-.86-3.81.12-.82.65-1.17.91-1.83-1.41-3.06.04-7.79.01-12.09,1.95-3.28,4.35-5.01,9.81-4.82Z" fill="currentColor" fill-rule="evenodd" stroke-width="0"/><path d="M119.89,16.71c-1.82,4.03-8.86.5-12.55,3.51-2.49,2.69-.2,6.27,2.73,7,1.33-.14,1.03-1.51,2.86-1.27,2.17.66,6.43,1.23,5.77,3.96-1.69,2.98-7.7,1.81-10.41,3.21-.89,1.94.33,6.49,2,7.98,4.9-.35,8.04-2.21,12.79-1.81,1.06,2.83-.49,3.69-1.47,4.99-4.76-.73-11.08,1.54-15.41,1.74-1.22-4.21-.61-10.38-2.96-14.8.82-3.3-.06-7.68-1.87-10.17.49-1.54,1.53-2.66,2.02-4.2.77-1.03,1.73.27,2.68.49,3.78-.48,11.63-3.77,13.82-.65h0Z" fill="currentColor" fill-rule="evenodd" stroke-width="0"/><path d="M134.31,16.11c.81,4.29-1.45,8.11-.11,12.5-.37.65-.42,1.36-.96,1.97.34,1.95.33,5,.99,7.46.74,2.79,2.76,4.84,6.65,3.67,1.25-.92,1.9-2.06,3.21-2.97.42-1.71.28-3.54,1.06-5.18-1.54-2.81.88-4.86-.66-7.67,1.91-2.59.22-5.88.95-8.71,1.94-1.31,3.36-.06,4.93.42-.4,2.35-.76,4.72-1.04,7.09-.22,1.85.03,3.73-.08,5.6-.16,2.56-.64,5.12-.55,7.73-1.23,2.04-1.8,3.56-3.47,5.03-1,.88-2.67,1.73-4.34,2.7-2.91.12-5.99-.85-8.58-3.02-.15-.13-1.09-.24-1.07-.21-.58-.87-.81-3.41-.87-4.69-.06-1.2-.76-2.53-.78-3.88-.07-3.43.55-7.16.2-10.53-.05-.48.78-.92.72-1.38-.19-1.39-.44-2.7-.79-3.86.56-.34.67-.77.53-1.24,1.48-.87,2.78-.85,4.07-.82h0Z" fill="currentColor" fill-rule="evenodd" stroke-width="0"/><path d="M156.83,227.85c-.39-1.32-.36-2.59-.19-3.95.14-1.09.38-2.25.31-3.34-.04-.6.35-1.27.07-1.81l-.4-.78.91-.08c.24-.02.5-.13.72-.22.96-.43,1.82-.89,2.77-.14l.3.23-.09.36c-.34,1.41-.89,2.94-.97,4.37-.07,1.34-.19,2.77-.85,3.99-.39.72-.41,1.2-1.1,1.66,1.27,1.58.02,4.51-.62,6.58.06-.01.12-.02.18-.04.51-.09,1.02-.13,1.54-.14,1.03-.03,3.3-.16,4.28-.6-.74-1.2-.97-3.06-1.09-4.31-.08-.87-.13-1.74-.18-2.62-.04-.6-.07-1.29-.19-1.87l-.13-.63.67-.08c.39-.05,1.19-.07,1.53.08.13.06.2.1.35.07l.42-.07.21.35c.63,1.06.38,1.8-.26,2.58,1.41,1.4,1.33,3.45,1.49,5.37.67.01.23.09.9-.1.74-.21,1.49-.49,2.27-.48.62,0,1.17.18,1.68.51l.25.16v.3c.04.55.06,1.09.08,1.64l.03.74-.75-.12c-2.03-.31-1.95.08-3.68.61-.08,1.27.23,2.11.8,3.32.47,1.01.82,1.86.9,2.99v.17s-.07.15-.07.15c-.69,1.22-3.5,1.44-4.62.75l-.32-.2.05-.37c.12-.92.22-1.84.21-2.77,0-1.23-.2-2.48-.42-3.7-.69.12-2.38.54-3.07.78-1.66.59-2.87.89-4.67.71l-.73-.07.21-.68s.04-.13.05-.2c-.08-.02-.19-.03-.24-.04-.7-.1-1.27-.36-1.27-1.16v-.24s.17-.17.17-.17c1.51-1.53.61-5.38,2.41-7.33l.16-.17Z" fill="currentColor" fill-rule="evenodd" stroke-width="0"/></g></svg>
