<svg viewBox="0 0 390 195" version="1.1" xmlns="http://www.w3.org/2000/svg" xmlns:xlink="http://www.w3.org/1999/xlink">
    <g transform="translate(0.8375, 0.2081)" fill-rule="nonzero">
        <path d="M81.1605313,83.0091387 C78.733998,79.2459388 80.4046647,76.1743389 84.8701312,76.1743389 L145.15693,76.1743389 C149.634796,76.1743389 151.30013,79.2459388 148.871863,83.0091387 L119.43333,128.479271 C117.003197,132.238871 113.030931,132.238871 110.599064,128.479271 L81.1605313,83.0091387 Z" id="path38" fill="currentColor" transform="translate(115.0172, 103.7367) scale(-1, 1) rotate(-180) translate(-115.0172, -103.7367)"></path>
        <path d="M124.520664,60.1491985 C121.965464,63.8211984 121.90653,69.8643983 124.38493,73.5882648 L134.187597,88.2869311 C136.66773,92.012531 140.631063,98.1646642 142.980663,101.961731 C142.980663,101.961731 160.802929,130.719463 192.264129,131.289463 C208.392261,131.58613 227.338394,125.13373 245.678661,98.3505309 L245.884261,98.0395975 C246.118261,97.7037309 248.292927,94.3550643 250.717727,90.5973311 L304.795192,6.8346665 C307.219992,3.07693326 305.545726,5.68434189e-14 301.074926,5.68434189e-14 L227.685061,5.68434189e-14 C223.212528,5.68434189e-14 217.555328,3.07159992 215.112661,6.8150665 L175.297862,67.8755983 C172.853462,71.6279982 168.856262,71.6279982 166.415329,67.8755983 L147.999996,39.5949323 C145.559196,35.8479991 141.472663,35.7835991 138.919197,39.455599 L124.520664,60.1491985 Z" id="path40" fill="currentColor" transform="translate(214.2359, 65.6496) scale(-1, 1) rotate(-180) translate(-214.2359, -65.6496)"></path>
        <path d="M246.164927,131.240378 C246.155594,131.309978 246.181061,131.318912 246.218527,131.259978 L308.974792,34.0494473 C309.014126,33.990514 308.986792,33.9422473 308.915859,33.9422473 L258.347727,33.9422473 C258.27626,33.9422473 258.211994,33.9994473 258.20306,34.0691806 L246.164927,131.240378 Z" id="path42" fill="currentColor" transform="translate(277.5779, 82.6206) scale(-1, 1) rotate(-180) translate(-277.5779, -82.6206)"></path>
        <path d="M15.1775996,155.013904 C18.2134662,155.013904 22.6966661,154.86017 24.7175994,155.05137 C28.0839993,155.38377 28.0215462,156.670304 28.0215462,161.253503 L28.0215462,172.69657 L25.684266,172.69657 C19.0978662,172.69657 5.83399985,172.444703 5.83399985,163.02257 C5.83399985,159.09857 8.92173311,155.013904 15.1775996,155.013904 M25.600266,176.94937 L28.021466,176.94937 L28.021466,178.282303 C28.021466,186.371503 23.6007994,188.703236 17.6809329,188.703236 C13.0082663,188.703236 9.42026643,187.375636 7.50119981,186.207103 C6.33613317,185.620969 5.41946653,185.790703 4.66906655,186.873503 L4.16333323,187.706169 C3.49679991,188.794436 3.66479991,189.873636 4.75119988,190.545503 C6.92039983,191.880303 11.5894664,193.409903 18.0971995,193.409903 C28.1037326,193.409903 33.6875992,188.630036 33.6875992,178.117903 L33.6875992,153.348437 C33.6875992,152.015504 32.1687992,150.435904 30.8357326,150.435904 L28.3519993,150.325104 C28.4413326,150.325104 24.6014661,150.25897 14.176933,150.25897 C7.08666649,150.25897 0,154.433104 0,162.520437 C0,176.195236 17.5129329,176.94937 25.600266,176.94937" id="path44" fill="currentColor" transform="translate(16.8438, 171.8344) scale(-1, 1) rotate(-180) translate(-16.8438, -171.8344)"></path>
        <path d="M50.3475987,191.169903 C50.3475987,192.502969 51.0962654,193.249769 52.4310654,193.249769 L53.9302653,193.249769 C55.1827986,193.249769 55.9333319,192.502969 55.9333319,191.169903 L55.9333319,185.491236 C55.9333319,183.654436 55.6009319,182.15697 55.6009319,182.15697 L55.7653319,182.15697 C57.7702652,188.244836 62.6071984,193.501769 69.2757316,193.501769 C70.7821316,193.501769 71.4450649,192.835236 71.4450649,191.500436 L71.4450649,189.994169 C71.4450649,188.661103 70.5265316,187.907103 69.1078649,187.907103 C60.2699985,187.907103 56.0173319,177.816703 56.0173319,169.061103 L56.0173319,153.379637 C56.0173319,152.044837 55.3525319,151.299637 54.0159986,151.299637 L52.4310654,151.299637 C51.0962654,151.299637 50.3475987,152.044837 50.3475987,153.379637 L50.3475987,191.169903 Z" id="path46" fill="currentColor" transform="translate(60.8963, 172.4007) scale(-1, 1) rotate(-180) translate(-60.8963, -172.4007)"></path>
        <path d="M100.305464,194.499636 C107.477997,194.499636 112.148797,191.415503 114.235864,189.739503 C115.23293,188.992569 115.318664,187.993769 114.487864,186.905503 L113.89813,185.987103 C113.151197,184.818436 112.234531,184.818436 111.064131,185.570703 C109.232664,186.991236 105.560664,189.408836 100.477064,189.408836 C91.3014644,189.408836 84.1273312,182.488436 84.1273312,172.478436 C84.1273312,162.552437 91.3014644,155.624704 100.561064,155.624704 C106.393331,155.624704 110.397731,158.380037 112.404397,160.050837 C113.48533,160.881637 114.400264,160.717237 115.154264,159.546837 L115.735064,158.71777 C116.405064,157.626037 116.153197,156.714704 115.23293,155.88377 C113.067197,154.12737 108.063997,150.548304 100.305464,150.548304 C87.7957311,150.548304 78.289598,159.470037 78.289598,172.478436 C78.289598,185.400969 87.8778645,194.499636 100.305464,194.499636" id="path48" fill="currentColor" transform="translate(97.2015, 172.524) scale(-1, 1) rotate(-180) translate(-97.2015, -172.524)"></path>
        <path d="M165.592129,167.80937 C165.592129,156.88617 158.555596,151.550704 148.636663,151.550704 C139.377197,151.550704 139.591597,156.88617 149.18173,156.88617 C157.272529,156.88617 159.920663,162.716703 159.920663,169.306703 L159.920663,192.417903 C159.920663,193.752703 160.669329,194.499636 162.004129,194.499636 L163.589063,194.499636 C164.925729,194.499636 165.592129,193.752703 165.592129,192.417903 L165.592129,167.80937 Z" id="path50" fill="currentColor" transform="translate(153.7149, 173.0252) scale(-1, 1) rotate(-180) translate(-153.7149, -173.0252)"></path>
        <path d="M129.13613,192.418969 C129.13613,193.752036 129.802663,194.498836 131.135597,194.498836 L132.718797,194.498836 C134.053597,194.498836 134.803997,193.752036 134.803997,192.418969 L134.803997,169.305903 C134.803997,162.71777 137.45933,156.885503 145.550263,156.885503 C155.136796,156.885503 155.358263,151.551637 146.097063,151.551637 C136.169197,151.551637 129.13613,156.885503 129.13613,167.810303 L129.13613,192.418969 Z" id="path52" fill="currentColor" transform="translate(141.0153, 173.0252) scale(-1, 1) rotate(-180) translate(-141.0153, -173.0252)"></path>
        <path d="M179.642796,158.21137 L180.305729,159.04577 C181.052662,160.048303 181.974662,160.126837 183.141462,159.38177 C184.976529,157.961237 188.814795,155.54537 194.234262,155.54537 C198.903328,155.54537 202.739728,157.877237 202.739728,162.299637 C202.739728,171.72897 180.305729,168.884303 180.305729,182.732436 C180.305729,190.487369 186.892129,194.498969 194.570262,194.498969 C200.572262,194.498969 204.328262,192.326036 206.079462,191.073503 C207.156928,190.412303 207.324795,189.408169 206.658395,188.325369 L206.079462,187.406836 C205.411062,186.238303 204.410528,186.150703 203.238262,186.818969 C201.656928,187.907236 198.653195,189.484969 194.234262,189.484969 C189.813595,189.484969 185.973595,187.571236 185.973595,182.980836 C185.973595,173.30857 208.330795,176.39977 208.330795,162.385503 C208.330795,155.459637 202.487862,150.547504 194.148528,150.547504 C186.809862,150.547504 182.053329,153.624437 179.973329,155.379237 C178.967329,156.133237 178.885196,157.132037 179.642796,158.21137" id="path54" fill="currentColor" transform="translate(193.7342, 172.5232) scale(-1, 1) rotate(-180) translate(-193.7342, -172.5232)"></path>
        <path d="M225.680528,177.154703 L222.178261,177.154703 C220.843461,177.154703 220.177061,177.821236 220.177061,179.16137 L220.177061,179.822436 C220.177061,181.160836 220.843461,181.905903 222.178261,181.905903 L225.769861,181.905903 L225.769861,191.753369 C225.769861,193.086303 226.513194,193.840436 227.846261,193.840436 L229.354261,193.840436 C230.689061,193.840436 231.353861,193.086303 231.353861,191.753369 L231.353861,181.905903 L239.859327,181.905903 C241.195861,181.905903 241.946261,181.160836 241.946261,179.822436 L241.946261,179.16137 C241.946261,177.821236 241.195861,177.154703 239.859327,177.154703 L231.353861,177.154703 L231.353861,156.141237 C231.353861,146.467104 237.275461,145.29137 240.532927,145.12697 C242.196527,144.960837 242.779061,144.465904 242.779061,143.039904 L242.779061,141.966037 C242.779061,140.631237 242.112527,139.955904 240.441727,139.955904 C231.266261,139.955904 225.680528,145.550437 225.680528,155.387104 L225.680528,177.154703 Z" id="path56" fill="currentColor" transform="translate(231.4781, 166.8982) scale(-1, 1) rotate(-180) translate(-231.4781, -166.8982)"></path>
        <path d="M284.23706,176.64377 C283.899326,185.483369 278.558393,189.823636 272.306127,189.823636 C265.30346,189.823636 259.21026,185.156303 257.877194,176.64377 L284.23706,176.64377 Z M272.47586,194.498036 C283.650926,194.498036 289.987059,186.403503 289.987059,174.478036 C289.987059,173.30937 289.068659,172.39097 287.821459,172.39097 L257.62706,172.39097 C257.877194,161.714437 265.217727,155.623104 273.89466,155.623104 C279.147993,155.623104 282.980793,157.962037 284.90346,159.468437 C286.070393,160.213503 286.981593,160.049103 287.657059,158.96457 L288.319993,157.962037 C288.906126,156.963237 288.739859,155.960837 287.735726,155.20857 C285.48786,153.54497 280.48106,150.548437 273.72666,150.548437 C261.213327,150.548437 251.791194,159.547103 251.791194,172.476703 C251.791194,186.237369 261.129327,194.498036 272.47586,194.498036" id="path58" fill="currentColor" transform="translate(270.8891, 172.5232) scale(-1, 1) rotate(-180) translate(-270.8891, -172.5232)"></path>
        <path d="M323.275592,194.499636 C330.448125,194.499636 335.117192,191.415503 337.200658,189.739503 C338.203058,188.992569 338.288792,187.993769 337.452525,186.905503 L336.868258,185.987103 C336.117725,184.818436 335.201058,184.818436 334.032525,185.570703 C332.195592,186.991236 328.527192,189.408836 323.439992,189.408836 C314.267992,189.408836 307.091992,182.488436 307.091992,172.478436 C307.091992,162.552437 314.267992,155.624704 323.523992,155.624704 C329.361592,155.624704 333.364258,158.380037 335.365458,160.050837 C336.450125,160.881637 337.372125,160.717237 338.119058,159.546837 L338.705192,158.71777 C339.375192,157.626037 339.123325,156.714704 338.203058,155.88377 C336.035592,154.12737 331.030525,150.548304 323.275592,150.548304 C310.763992,150.548304 301.254392,159.470037 301.254392,172.478436 C301.254392,185.400969 310.847992,194.499636 323.275592,194.499636" id="path60" fill="currentColor" transform="translate(320.169, 172.524) scale(-1, 1) rotate(-180) translate(-320.169, -172.524)"></path>
        <path d="M352.723991,191.418303 C352.723991,192.753103 353.390391,193.503503 354.723458,193.503503 L356.308391,193.503503 C357.641458,193.503503 358.395458,192.753103 358.395458,191.418303 L358.395458,170.485236 C358.395458,168.564303 358.055991,167.065237 358.055991,167.065237 L358.227458,167.065237 C359.812391,170.985503 365.483991,177.829236 374.989991,177.829236 C385.418124,177.829236 389.090124,171.904036 389.090124,161.558037 L389.090124,136.954837 C389.090124,135.618171 388.416524,134.873104 387.083457,134.873104 L385.502124,134.873104 C384.16559,134.873104 383.415057,135.618171 383.415057,136.954837 L383.415057,160.05897 C383.415057,166.648837 382.412657,172.48657 374.243057,172.48657 C365.396391,172.48657 358.395458,165.230037 358.395458,155.130704 L358.395458,136.954837 C358.395458,135.618171 357.641458,134.873104 356.308391,134.873104 L354.723458,134.873104 C353.390391,134.873104 352.723991,135.618171 352.723991,136.954837 L352.723991,191.418303 Z" id="path62" fill="currentColor" transform="translate(370.9071, 164.1883) scale(-1, 1) rotate(-180) translate(-370.9071, -164.1883)"></path>
    </g>
</svg>
