<svg xmlns="http://www.w3.org/2000/svg" viewBox="0 0 848.76 142.19"><path d="M238.99 47.64c.42.25.74.58.94.98.2.4.16.88-.11 1.43l-6.34 9c-.28.43-.57.67-.88.73-.31.06-.69-.04-1.14-.32-1.22-.92-2.57-1.64-4.05-2.14-1.48-.5-3.04-.75-4.69-.75-2.05 0-3.94.39-5.66 1.16s-3.21 1.84-4.46 3.19a14.534 14.534 0 0 0-2.92 4.72c-.7 1.8-1.05 3.73-1.05 5.78s.35 3.97 1.05 5.76c.7 1.79 1.67 3.35 2.92 4.69 1.25 1.34 2.74 2.39 4.46 3.17 1.73.78 3.61 1.16 5.66 1.16 1.65 0 3.23-.26 4.73-.77 1.5-.51 2.86-1.23 4.09-2.16.45-.27.82-.39 1.12-.34.3.05.6.28.9.67l6.41 9.22c.27.55.31 1.01.11 1.39-.2.38-.51.69-.94.94-2.35 1.58-4.88 2.79-7.59 3.66s-5.57 1.29-8.57 1.29c-2.65 0-5.19-.34-7.63-1.01s-4.72-1.64-6.84-2.89a28.371 28.371 0 0 1-5.79-4.48 28.865 28.865 0 0 1-4.48-5.78c-1.25-2.11-2.21-4.39-2.89-6.83s-1.01-4.98-1.01-7.63.34-5.19 1.01-7.63 1.64-4.72 2.89-6.86c1.25-2.14 2.74-4.08 4.48-5.83 1.74-1.75 3.67-3.24 5.79-4.48 2.12-1.24 4.41-2.2 6.84-2.89 2.44-.69 4.98-1.03 7.63-1.03 3 0 5.83.42 8.49 1.26 2.66.84 5.17 2.04 7.52 3.62ZM262.2 71.49c0-2.65.34-5.19 1.01-7.63.67-2.44 1.64-4.72 2.89-6.86 1.25-2.14 2.75-4.08 4.48-5.83 1.74-1.75 3.67-3.24 5.8-4.48s4.41-2.2 6.85-2.89c2.44-.69 4.98-1.03 7.64-1.03s5.17.34 7.62 1.03 4.74 1.65 6.87 2.89c2.13 1.24 4.06 2.73 5.82 4.48 1.75 1.75 3.25 3.69 4.48 5.83 1.24 2.14 2.2 4.42 2.89 6.86.69 2.44 1.03 4.98 1.03 7.63s-.34 5.19-1.03 7.63c-.69 2.44-1.65 4.71-2.89 6.83a28.424 28.424 0 0 1-4.48 5.78 29.114 29.114 0 0 1-5.82 4.48 28.63 28.63 0 0 1-6.87 2.89c-2.45.67-4.99 1.01-7.62 1.01s-5.2-.34-7.64-1.01-4.72-1.64-6.85-2.89a28.708 28.708 0 0 1-5.8-4.48 28.865 28.865 0 0 1-4.48-5.78 28.174 28.174 0 0 1-2.89-6.83c-.68-2.44-1.01-4.98-1.01-7.63Zm14.51-.04c0 2.08.35 4.01 1.05 5.81.7 1.8 1.68 3.37 2.94 4.71 1.26 1.34 2.75 2.39 4.48 3.15 1.72.76 3.62 1.14 5.69 1.14s3.98-.38 5.71-1.14c1.73-.76 3.23-1.81 4.49-3.15 1.26-1.34 2.24-2.91 2.94-4.71.7-1.8 1.05-3.74 1.05-5.81s-.35-3.98-1.05-5.79c-.7-1.81-1.68-3.39-2.94-4.74s-2.76-2.41-4.49-3.19c-1.74-.77-3.64-1.16-5.71-1.16s-3.97.39-5.69 1.16-3.21 1.84-4.48 3.19c-1.26 1.35-2.24 2.93-2.94 4.74-.7 1.81-1.05 3.74-1.05 5.79ZM395.7 71.49c0 2.65-.34 5.17-1.01 7.56-.67 2.39-1.64 4.61-2.89 6.68s-2.74 3.93-4.48 5.61c-1.74 1.68-3.66 3.1-5.77 4.28-2.11 1.18-4.39 2.08-6.84 2.72-2.45.64-4.99.96-7.61.96h-18.49c-.45 0-.85-.1-1.2-.3-.35-.2-.53-.62-.53-1.28v-52.4c0-.52.14-.95.43-1.27.29-.32.72-.49 1.29-.49h18.49c2.62 0 5.16.33 7.59.98 2.44.65 4.71 1.58 6.82 2.77 2.11 1.2 4.04 2.64 5.79 4.31 1.75 1.68 3.24 3.55 4.48 5.62 1.24 2.08 2.2 4.31 2.89 6.71.69 2.4 1.03 4.91 1.03 7.54Zm-34.31-14.48v28.84h3.15c.58 0 1.14-.02 1.69-.06.55-.04 1.1-.08 1.65-.13 1.88-.15 3.62-.61 5.25-1.37 1.62-.76 3.04-1.76 4.26-3 1.21-1.24 2.16-2.69 2.85-4.37.69-1.67 1.03-3.5 1.03-5.48 0-2.1-.39-4.03-1.18-5.79-.79-1.76-1.86-3.29-3.21-4.58-1.35-1.29-2.93-2.29-4.74-3S368.4 57 366.35 57h-4.95ZM424.24 45.32c0-.52.14-.94.43-1.26.29-.31.69-.47 1.22-.47h37.2c.55 0 .97.16 1.27.49.3.32.45.76.45 1.31v9.27c0 .42-.15.83-.45 1.22-.3.39-.74.58-1.31.58h-24.3v9.3h18.75c.47 0 .87.11 1.18.34.31.23.47.6.47 1.12v8.1c0 .35-.14.69-.41 1.01-.28.33-.67.49-1.2.49h-18.79v9.6h25.2c1.12 0 1.69.57 1.69 1.72v9.42c0 .25-.1.47-.3.67-.1.7-.61 1.05-1.54 1.05h-37.92c-.5 0-.9-.13-1.2-.39-.3-.26-.45-.67-.45-1.22V45.32ZM529.84 43.59c.45 0 .86.14 1.22.41.36.28.57.69.62 1.24v3.79c0 .5-.15.93-.45 1.29-.3.36-.76.54-1.39.54h-15.6v46.69c0 .45-.15.85-.45 1.2-.3.35-.73.52-1.28.52h-3.79c-.45 0-.85-.16-1.2-.49-.35-.32-.53-.74-.53-1.24V50.87h-15.67c-.5 0-.91-.15-1.24-.45-.33-.3-.49-.76-.49-1.39v-3.79c0-.5.16-.9.49-1.2.32-.3.74-.45 1.24-.45h38.51ZM582.37 42.84c2.62 0 5.16.34 7.59 1.01 2.44.67 4.71 1.64 6.83 2.89 2.11 1.25 4.04 2.74 5.79 4.48 1.75 1.74 3.24 3.67 4.48 5.81 1.24 2.14 2.2 4.43 2.89 6.88s1.03 5 1.03 7.65-.34 5.16-1.01 7.59c-.68 2.44-1.64 4.71-2.89 6.82-1.25 2.11-2.74 4.04-4.48 5.78s-3.67 3.22-5.79 4.46c-2.12 1.24-4.41 2.19-6.86 2.87s-5 1.01-7.65 1.01-5.19-.34-7.63-1.01-4.71-1.64-6.83-2.89a28.802 28.802 0 0 1-5.77-4.48 28.058 28.058 0 0 1-4.46-5.78c-1.24-2.11-2.19-4.39-2.87-6.83-.67-2.44-1.01-4.98-1.01-7.63s.34-5.16 1.01-7.59c.68-2.44 1.64-4.72 2.89-6.84 1.25-2.12 2.74-4.06 4.48-5.81 1.74-1.75 3.67-3.24 5.79-4.48 2.12-1.24 4.41-2.2 6.84-2.89 2.44-.69 4.98-1.03 7.63-1.03Zm-21.45 28.54c0 1.97.26 3.87.77 5.68.51 1.81 1.23 3.51 2.16 5.1.92 1.59 2.04 3.03 3.34 4.33s2.74 2.41 4.33 3.34c1.59.93 3.29 1.64 5.1 2.16 1.81.51 3.71.77 5.68.77s3.84-.26 5.66-.77c1.82-.51 3.52-1.23 5.1-2.16 1.58-.92 3.01-2.04 4.31-3.34s2.41-2.74 3.34-4.33a22.6 22.6 0 0 0 2.16-5.1c.51-1.81.77-3.71.77-5.68 0-2.95-.56-5.72-1.69-8.31a21.592 21.592 0 0 0-4.58-6.77c-1.92-1.92-4.18-3.45-6.77-4.57s-5.36-1.69-8.31-1.69c-1.97 0-3.87.26-5.68.77-1.81.51-3.51 1.23-5.1 2.16-1.59.93-3.03 2.04-4.33 3.34-1.3 1.3-2.41 2.74-3.34 4.31-.93 1.58-1.64 3.28-2.16 5.1-.51 1.83-.77 3.71-.77 5.66ZM640.23 45.39c0-1.2.58-1.8 1.73-1.8h18.64c2.48 0 4.77.46 6.88 1.39 2.11.92 3.94 2.18 5.49 3.77 1.55 1.59 2.76 3.44 3.64 5.55.88 2.11 1.31 4.34 1.31 6.69s-.43 4.49-1.29 6.56c-.86 2.08-2.06 3.91-3.6 5.49-1.54 1.59-3.35 2.85-5.44 3.79-2.09.94-4.36 1.41-6.81 1.41h-13.31v19.39c0 1.1-.55 1.65-1.65 1.65h-3.94c-1.1 0-1.65-.55-1.65-1.65V45.39Zm30.45 15.53c0-1.33-.26-2.6-.79-3.83-.53-1.22-1.24-2.31-2.16-3.24-.91-.94-1.98-1.69-3.21-2.25s-2.54-.84-3.94-.84h-13.12v20.32h13.12c1.35 0 2.64-.27 3.86-.82 1.22-.55 2.3-1.29 3.22-2.23s1.66-2.02 2.19-3.24c.54-1.22.81-2.51.81-3.86ZM706.87 45.24c0-.45.14-.84.43-1.16.29-.32.69-.49 1.22-.49h3.9c.45 0 .85.15 1.2.45.35.3.53.7.53 1.2v52.39c0 1.1-.58 1.65-1.72 1.65h-3.9c-1.1 0-1.65-.55-1.65-1.65V45.24ZM749.55 97.89c-.18.43-.43.76-.75 1.01-.33.25-.74.38-1.24.38h-3.98c-1.15 0-1.72-.44-1.72-1.31 0-.17 0-.32.02-.43.01-.11.03-.22.06-.32.02-.1.05-.19.07-.26l21.64-51.97c.05-.12.11-.27.19-.43.08-.16.17-.31.3-.45.12-.14.31-.26.54-.36.24-.1.56-.15.96-.15h2.48c.38 0 .68.05.92.15.24.1.42.22.54.36.12.14.23.29.3.45.07.16.14.31.19.43l21.45 51.97c.03.13.05.25.08.38.02.13.05.24.08.36.02.11.04.21.04.28 0 .88-.58 1.31-1.72 1.31h-3.97c-.5 0-.91-.12-1.24-.38-.33-.25-.58-.59-.75-1.01l-4.12-10.31H753.6c-.88 2.23-1.68 4.24-2.4 6.04-.73 1.8-1.26 3.22-1.61 4.27Zm7.01-17.59H777l-10.12-25.65-10.31 25.65ZM832.12 41.4c1.52 0 2.98.2 4.39.59 1.41.39 2.74.96 3.97 1.68 1.23.73 2.35 1.6 3.37 2.61 1.01 1.01 1.88 2.14 2.61 3.39s1.29 2.58 1.69 4.01c.4 1.43.6 2.92.6 4.46s-.2 2.98-.59 4.39a16.63 16.63 0 0 1-1.68 3.97c-.73 1.23-1.6 2.35-2.61 3.37a16.851 16.851 0 0 1-3.38 2.61 16.7 16.7 0 0 1-12.85 1.7c-1.41-.39-2.74-.96-3.97-1.68s-2.36-1.6-3.38-2.61a16.334 16.334 0 0 1-2.62-3.39c-.73-1.25-1.29-2.58-1.69-4.01-.4-1.43-.6-2.92-.6-4.46s.2-2.98.59-4.38.95-2.73 1.68-3.96 1.6-2.36 2.61-3.38c1.01-1.02 2.14-1.89 3.39-2.62 1.25-.73 2.58-1.29 4.01-1.69 1.43-.4 2.92-.6 4.46-.6Zm-6.73 5.16c-1.63.96-2.99 2.16-4.08 3.59-1.09 1.43-1.86 2.97-2.33 4.61s-.6 3.35-.42 5.12c.19 1.76.75 3.46 1.68 5.09.6 1.02 1.32 1.94 2.15 2.75.84.82 1.76 1.52 2.78 2.1 1.01.58 2.09 1.03 3.22 1.34s2.29.47 3.46.48 2.35-.15 3.52-.46c1.17-.31 2.3-.81 3.38-1.5 1.09-.61 2.07-1.35 2.92-2.21a13.806 13.806 0 0 0 3.52-5.99c.31-1.12.48-2.27.5-3.43.02-1.17-.11-2.32-.4-3.48-.29-1.15-.74-2.26-1.36-3.32-.93-1.62-2.11-2.95-3.54-3.99-1.43-1.04-2.98-1.77-4.65-2.2s-3.4-.52-5.19-.28c-1.79.23-3.52.82-5.18 1.77Zm-.28 2.93c0-.42.19-.63.57-.63h7.61c.82.04 1.58.23 2.3.55.71.32 1.33.75 1.86 1.29s.94 1.17 1.25 1.88c.31.71.46 1.48.46 2.3 0 1.14-.27 2.16-.8 3.06-.53.9-1.24 1.63-2.13 2.19l3.13 6.58s0 .05.02.08.02.05.02.08c0 .29-.19.44-.57.44h-2.69c-.22 0-.38-.13-.48-.39l-2.75-6.01h-4.33v5.88c0 .35-.19.52-.57.52h-2.32c-.16 0-.3-.04-.41-.12-.11-.08-.16-.21-.16-.4V49.52Zm10.63 5.33c0-.32-.06-.64-.19-.95-.12-.31-.29-.59-.51-.83-.22-.24-.48-.44-.8-.59s-.67-.23-1.06-.23h-4.61v5.25h4.61c.38 0 .73-.07 1.04-.21.31-.14.58-.32.81-.56.23-.23.4-.51.52-.83.12-.32.19-.67.19-1.05Z" style="fill:#1d1d1b"/><path d="m115.08 75.77-8.88 8.88 15.66 15.66c-2.54 4.4-5.68 8.5-9.37 12.19-11.06 11.06-25.76 17.15-41.39 17.15s-30.34-6.09-41.39-17.15c-11.06-11.06-17.15-25.76-17.15-41.4s6.09-30.34 17.15-41.4C40.77 18.64 55.47 12.55 71.1 12.55s30.34 6.09 41.39 17.15c3.76 3.76 6.95 7.95 9.51 12.44l-20.28 20.28-.02-.02-3.14 3.14-5.74 5.74-8.44 8.44-1.69 1.67a15.563 15.563 0 0 1-11.62 5.19c-8.53 0-15.48-6.94-15.48-15.48s6.94-15.48 15.48-15.48c3.31 0 6.38 1.05 8.91 2.83l3.74 3.74 4.61 4.61.04.04 8.88-8.88L93.29 54l-5.11-5.11a27.68 27.68 0 0 0-7.78-4.23 27.935 27.935 0 0 0-9.32-1.59c-15.48 0-28.03 12.55-28.03 28.03S55.6 99.13 71.08 99.13c7.56 0 14.41-2.99 19.45-7.85.2-.16.4-.33.59-.51l10.59-10.59.03.03 8.88-8.88-.03-.03 16.69-16.69 9.86-9.86a70.186 70.186 0 0 0-6.01-11.74C118.52 13.17 96.35 0 71.09 0 31.83 0 0 31.83 0 71.09s31.83 71.09 71.09 71.09c25.15 0 47.25-13.06 59.89-32.76 2.36-3.68 4.39-7.6 6.05-11.7l-9.83-9.83-12.12-12.12Z"/></svg>