<svg id="Ebene_2" data-name="Ebene 2" xmlns="http://www.w3.org/2000/svg" viewBox="0 0 208.92 74.43">
  <defs>
    <style>
      .cls-1 {
        fill: #1d1d1b;
        stroke-width: 0px;
      }
    </style>
  </defs>
  <g id="Ebene_1-2" data-name="Ebene 1">
    <g>
      <g>
        <path class="cls-1" d="m46.07,47.32c0-3.68.68-6.81,2.03-9.4,1.35-2.59,3.27-4.57,5.76-5.94,2.49-1.37,5.43-2.06,8.82-2.06s6.48.7,9,2.09c2.53,1.39,4.49,3.31,5.88,5.76,1.39,2.45,2.09,5.27,2.09,8.46s-.67,5.9-2,8.37c-1.33,2.47-3.12,4.41-5.37,5.82-2.24,1.41-4.78,2.12-7.61,2.12-1.82,0-3.5-.3-5.03-.91-1.54-.61-2.81-1.41-3.82-2.43v14.61h-9.76v-26.5Zm21.65,4.34c1.29-1.35,1.94-3.14,1.94-5.37s-.65-4.01-1.94-5.37c-1.29-1.35-2.97-2.03-5.03-2.03s-3.74.68-5.03,2.03c-1.29,1.35-1.94,3.14-1.94,5.37s.65,4.01,1.94,5.37c1.29,1.35,2.97,2.03,5.03,2.03s3.74-.68,5.03-2.03Z"/>
        <path class="cls-1" d="m86.45,26.31c-1.01-1.07-1.52-2.35-1.52-3.85s.5-2.83,1.52-3.88c1.01-1.05,2.28-1.58,3.82-1.58s2.87.53,3.88,1.58c1.01,1.05,1.52,2.34,1.52,3.88s-.51,2.78-1.52,3.85c-1.01,1.07-2.3,1.61-3.88,1.61s-2.81-.54-3.82-1.61Zm8.73,35.38h-9.76v-26.62c0-1.41.44-2.49,1.33-3.21.89-.73,2.14-1.09,3.76-1.09.81,0,1.62.08,2.42.24.81.16,1.56.38,2.24.67v30.01Z"/>
        <path class="cls-1" d="m102.15,42.96c0-2.83.7-5.21,2.09-7.15,1.39-1.94,3.26-3.4,5.61-4.4,2.34-.99,4.93-1.49,7.76-1.49s5.41.5,7.73,1.49c2.32.99,4.18,2.46,5.58,4.4,1.39,1.94,2.09,4.33,2.09,7.15v18.74h-9.76v-16.49c0-4.2-1.88-6.31-5.64-6.31s-5.7,2.1-5.7,6.31v16.49h-9.76v-18.74Z"/>
        <path class="cls-1" d="m154.35,74.43c-1.62,0-3.31-.13-5.09-.39-1.78-.26-3.4-.61-4.85-1.03s-2.55-.86-3.27-1.3l2.67-6.97c.61.32,1.44.64,2.52.94,1.07.3,2.23.55,3.49.73,1.25.18,2.42.27,3.52.27,2.79,0,4.98-.7,6.58-2.09s2.4-3.45,2.4-6.15v-.67c-2.22,2.22-5.17,3.33-8.85,3.33-2.87,0-5.44-.62-7.7-1.85-2.26-1.23-4.04-2.96-5.34-5.18-1.29-2.22-1.94-4.83-1.94-7.82s.7-5.84,2.09-8.31c1.39-2.47,3.37-4.42,5.91-5.85,2.55-1.43,5.56-2.15,9.03-2.15s6.28.69,8.76,2.06c2.49,1.37,4.41,3.36,5.76,5.94,1.35,2.59,2.03,5.72,2.03,9.4v8.97c0,5.78-1.58,10.25-4.73,13.4s-7.48,4.73-12.98,4.73Zm-4-33.53c-1.25,1.33-1.88,2.99-1.88,4.97s.63,3.64,1.88,4.97c1.25,1.33,2.93,2,5.03,2s3.78-.67,5.03-2c1.25-1.33,1.88-2.99,1.88-4.97s-.63-3.64-1.88-4.97c-1.25-1.33-2.93-2-5.03-2s-3.78.67-5.03,2Z"/>
        <path class="cls-1" d="m208.92,49.08c0,4.16-1.38,7.45-4.12,9.85-2.75,2.41-6.53,3.61-11.34,3.61s-8.54-1.2-11.31-3.61c-2.77-2.4-4.15-5.69-4.15-9.85v-14.01c0-1.41.44-2.49,1.33-3.21.89-.73,2.14-1.09,3.76-1.09.81,0,1.62.08,2.43.24.81.16,1.56.38,2.24.67v15.58c0,4.2,1.9,6.31,5.7,6.31s5.7-2.1,5.7-6.31v-12.19c0-1.41.44-2.49,1.33-3.21.89-.73,2.14-1.09,3.76-1.09.81,0,1.62.08,2.43.24.81.16,1.55.38,2.24.67v17.4Z"/>
      </g>
      <g>
        <path class="cls-1" d="m62.45,69.32c0-.78.29-1.37.87-1.78.58-.41,1.44-.61,2.57-.61.9,0,1.62.12,2.16.35.54.23.81.54.81.92,0,.17-.06.36-.19.55-.12.19-.28.34-.46.43-.1-.11-.29-.21-.56-.31s-.58-.17-.92-.23c-.34-.06-.66-.09-.96-.09-.73,0-1.1.17-1.1.52,0,.15.07.26.21.33.14.07.37.13.69.18l1.24.17c1.61.22,2.41.94,2.41,2.15,0,.76-.29,1.36-.88,1.8-.59.44-1.4.65-2.44.65-.47,0-.94-.04-1.42-.12s-.91-.19-1.31-.33-.7-.29-.92-.45l.79-1.43c.27.19.65.35,1.16.48.5.13,1.02.19,1.56.19.76,0,1.14-.16,1.14-.48,0-.15-.08-.26-.23-.34-.15-.08-.41-.15-.76-.19l-1.24-.17c-1.47-.19-2.2-.91-2.2-2.16Z"/>
        <path class="cls-1" d="m74.9,74.33c-.73,0-1.38-.17-1.97-.5-.59-.33-1.05-.78-1.4-1.34-.34-.56-.52-1.18-.52-1.87s.17-1.32.52-1.88c.34-.56.81-1,1.4-1.33.59-.33,1.24-.5,1.97-.5s1.39.17,1.98.5c.58.33,1.05.77,1.39,1.33.34.56.52,1.18.52,1.88s-.17,1.31-.52,1.87c-.34.56-.81,1-1.39,1.34-.58.33-1.24.5-1.98.5Zm1.16-4.94c-.3-.33-.69-.49-1.16-.49s-.85.16-1.16.49-.45.74-.45,1.23.15.91.45,1.23.69.49,1.16.49.85-.16,1.16-.49.45-.74.45-1.23-.15-.91-.45-1.23Z"/>
        <path class="cls-1" d="m83.2,74.14h-2.22v-9.17c0-.32.1-.56.3-.73.2-.17.49-.25.85-.25.18,0,.37.02.55.06.18.04.35.09.51.15v9.94Z"/>
        <path class="cls-1" d="m92.7,71.28c0,.95-.31,1.69-.94,2.24-.62.55-1.48.82-2.58.82s-1.94-.27-2.57-.82c-.63-.55-.94-1.29-.94-2.24v-3.18c0-.32.1-.56.3-.73.2-.17.49-.25.85-.25.18,0,.37.02.55.06.18.04.35.09.51.15v3.54c0,.96.43,1.43,1.29,1.43s1.29-.48,1.29-1.43v-2.77c0-.32.1-.56.3-.73.2-.17.49-.25.85-.25.18,0,.37.02.55.06s.35.09.51.15v3.95Z"/>
        <path class="cls-1" d="m95.18,66.03c0-.32.1-.56.3-.73.2-.17.49-.25.85-.25.18,0,.37.02.55.06.18.04.35.09.51.15v1.86h1.58c.76,0,1.14.33,1.14.99,0,.18-.03.37-.08.57-.05.2-.12.37-.19.5h-2.45v2.16c0,.31.09.55.26.72.17.17.43.25.76.25.2,0,.41-.03.63-.09.22-.06.4-.14.55-.23l.87,1.51c-.17.15-.39.28-.67.41s-.58.22-.92.3c-.33.07-.66.11-.99.11-.81,0-1.46-.23-1.96-.67-.5-.45-.75-1.06-.75-1.83v-5.8Z"/>
        <path class="cls-1" d="m102.56,66.11c-.23-.24-.34-.53-.34-.87s.11-.64.34-.88c.23-.24.52-.36.87-.36s.65.12.88.36.34.53.34.88-.11.63-.34.87-.52.36-.88.36-.64-.12-.87-.36Zm1.98,8.03h-2.22v-6.04c0-.32.1-.56.3-.73.2-.17.49-.25.85-.25.18,0,.37.02.55.06s.35.09.51.15v6.81Z"/>
        <path class="cls-1" d="m110.69,74.33c-.73,0-1.38-.17-1.97-.5-.59-.33-1.05-.78-1.4-1.34-.34-.56-.52-1.18-.52-1.87s.17-1.32.52-1.88c.34-.56.81-1,1.4-1.33.59-.33,1.24-.5,1.97-.5s1.39.17,1.98.5c.58.33,1.05.77,1.39,1.33.34.56.52,1.18.52,1.88s-.17,1.31-.52,1.87c-.34.56-.81,1-1.39,1.34-.58.33-1.24.5-1.98.5Zm1.16-4.94c-.3-.33-.69-.49-1.16-.49s-.85.16-1.16.49-.45.74-.45,1.23.15.91.45,1.23.69.49,1.16.49.85-.16,1.16-.49.45-.74.45-1.23-.15-.91-.45-1.23Z"/>
        <path class="cls-1" d="m116.78,69.89c0-.64.16-1.18.48-1.62.32-.44.74-.77,1.27-1,.53-.22,1.12-.34,1.76-.34s1.23.11,1.76.34c.53.23.95.56,1.27,1,.32.44.47.98.47,1.62v4.25h-2.22v-3.74c0-.95-.43-1.43-1.28-1.43s-1.29.48-1.29,1.43v3.74h-2.22v-4.25Z"/>
        <path class="cls-1" d="m126.06,69.32c0-.78.29-1.37.87-1.78.58-.41,1.44-.61,2.57-.61.9,0,1.62.12,2.16.35.54.23.81.54.81.92,0,.17-.06.36-.19.55-.12.19-.28.34-.46.43-.1-.11-.29-.21-.56-.31s-.58-.17-.92-.23c-.34-.06-.66-.09-.96-.09-.73,0-1.1.17-1.1.52,0,.15.07.26.21.33.14.07.37.13.69.18l1.24.17c1.61.22,2.41.94,2.41,2.15,0,.76-.29,1.36-.88,1.8-.59.44-1.4.65-2.44.65-.47,0-.94-.04-1.42-.12s-.91-.19-1.31-.33-.7-.29-.92-.45l.79-1.43c.27.19.65.35,1.16.48.5.13,1.02.19,1.56.19.76,0,1.14-.16,1.14-.48,0-.15-.08-.26-.23-.34-.15-.08-.41-.15-.76-.19l-1.24-.17c-1.47-.19-2.2-.91-2.2-2.16Z"/>
      </g>
      <path class="cls-1" d="m42.46,24.52l-8.44-5.77v-1.74C34.02,7.61,26.4,0,17.01,0S0,7.61,0,17.01v39.83c0,.24.03.48.04.72l-.04-.02v16.32l6.29-3.81c2.93,2.38,6.65,3.81,10.72,3.81,9.39,0,17.01-7.61,17.01-17.01v-27.21l8.44-5.11Zm-20.85-4.15c-2.54,0-4.6-2.06-4.6-4.6s2.06-4.6,4.6-4.6,4.6,2.06,4.6,4.6-2.06,4.6-4.6,4.6Z"/>
    </g>
  </g>
</svg>
